<svg width="900" height="507" viewBox="0 0 900 507" fill="none" xmlns="http://www.w3.org/2000/svg">
<g clip-path="url(#clip0_1_2081)">
<rect width="900" height="506.25" fill="#1C1C1C"/>
<g clip-path="url(#clip1_1_2081)">
<rect x="-318.025" y="-83.1244" width="1115.09" height="2380.87" rx="175.803" fill="#323232"/>
<path d="M-265.286 178.067C-265.286 64.3294 -173.084 -27.873 -59.346 -27.873H535.871C649.609 -27.873 741.811 64.3295 741.811 178.067V507.069C741.811 620.807 649.609 713.009 535.871 713.009H-59.3459C-173.083 713.009 -265.286 620.807 -265.286 507.069V178.067Z" fill="#323232"/>
<path d="M535.872 672.825V713.009H-59.347V672.825H535.872ZM701.628 507.07V178.066C701.627 86.5219 627.416 12.3111 535.872 12.3107H-59.347C-150.891 12.3112 -225.102 86.5219 -225.102 178.066V507.068C-225.102 598.612 -150.891 672.825 -59.347 672.825V713.009L-62.0073 712.992C-174.518 711.567 -265.286 619.917 -265.286 507.068V178.066C-265.286 64.3292 -173.084 -27.8725 -59.347 -27.873H535.872L538.533 -27.8557C651.043 -26.4309 741.811 65.2173 741.811 178.066V507.07L741.794 509.73C740.38 621.356 650.158 711.578 538.533 712.992L535.872 713.009V672.825C627.416 672.825 701.627 598.614 701.628 507.07Z" fill="#1C1C1C"/>
<rect x="617.823" y="449.306" width="52.7408" height="52.7408" rx="2.51147" fill="#1C1C1C"/>
<path d="M455.506 29.8893C581.727 29.8893 684.049 132.212 684.049 258.433C684.049 384.654 581.727 486.976 455.506 486.976C429.118 486.976 397.741 485.72 371.371 488.232C345 490.743 317.374 513.346 299.794 543.484C282.214 573.621 247.053 652.733 150.362 652.733H-63.112C-141.48 652.733 -207.522 586.691 -207.522 508.323C-207.522 475.336 -205.01 455.583 -186.174 422.934C-167.338 390.285 -171.105 298.616 -179.896 276.013C-188.686 253.41 -213.801 225.784 -207.521 178.066C-207.521 96.2301 -141.18 29.8893 -59.3448 29.8893C-57.6637 29.8893 -55.9893 29.9196 -54.3218 29.9751V29.8893H455.506Z" fill="#1C1C1C"/>
<path d="M163.537 289.274C188.444 289.274 208.635 269.083 208.635 244.176C208.635 219.27 188.444 199.079 163.537 199.079C138.631 199.079 118.44 219.27 118.44 244.176C118.44 269.083 138.631 289.274 163.537 289.274Z" fill="#323232"/>
<path d="M163.538 265.975C175.58 265.975 185.343 256.213 185.343 244.171C185.343 232.128 175.58 222.366 163.538 222.366C151.495 222.366 141.733 232.128 141.733 244.171C141.733 256.213 151.495 265.975 163.538 265.975Z" fill="#1C1C1C"/>
<path d="M163.531 147.465C179.2 147.465 191.903 134.762 191.903 119.093C191.903 103.423 179.2 90.7209 163.531 90.7209C147.861 90.7209 135.159 103.423 135.159 119.093C135.159 134.762 147.861 147.465 163.531 147.465Z" fill="#323232"/>
<rect x="-169.841" y="386.518" width="431.972" height="231.055" rx="115.527" fill="#323232"/>
<rect x="-169.841" y="65.0507" width="233.566" height="233.566" rx="115.527" fill="#323232"/>
<rect x="252.077" y="52.495" width="406.857" height="406.857" rx="203.429" fill="#303033"/>
<path d="M413.84 80.5608H390.457V103.935H413.84V80.5608Z" fill="white"/>
<path d="M441.01 80.5608H417.626V103.938H441.01V80.5608Z" fill="white"/>
<path d="M468.181 80.5608H444.797V103.935H468.181V80.5608Z" fill="white"/>
<path d="M495.35 80.5608H471.967V104.087H495.35V80.5608Z" fill="white"/>
<path d="M522.519 80.5608H499.136V103.935H522.519V80.5608Z" fill="white"/>
<path d="M359.5 107.731H336.117V131.257H359.5V107.731Z" fill="white"/>
<path d="M386.671 107.731H363.288V131.106H386.671V107.731Z" fill="white"/>
<path d="M413.84 107.731H390.457V131.105H413.84V107.731Z" fill="white"/>
<path d="M441.01 107.731H417.626V131.108H441.01V107.731Z" fill="white"/>
<path d="M468.181 107.731H444.797V131.105H468.181V107.731Z" fill="white"/>
<path d="M495.35 107.731H471.967V131.257H495.35V107.731Z" fill="white"/>
<path d="M522.519 107.731H499.136V131.105H522.519V107.731Z" fill="white"/>
<path d="M549.69 107.731H526.306V131.108H549.69V107.731Z" fill="white"/>
<path d="M576.86 107.731H553.477V131.105H576.86V107.731Z" fill="white"/>
<path d="M332.33 134.901H308.946V158.277H332.33V134.901Z" fill="white"/>
<path d="M359.5 134.901H336.117V158.428H359.5V134.901Z" fill="white"/>
<path d="M386.671 134.901H363.288V158.277H386.671V134.901Z" fill="white"/>
<path d="M413.84 134.901H390.457V158.276H413.84V134.901Z" fill="white"/>
<path d="M441.01 134.901H417.626V158.279H441.01V134.901Z" fill="white"/>
<path d="M468.181 134.901H444.797V158.276H468.181V134.901Z" fill="white"/>
<path d="M495.35 134.901H471.967V158.428H495.35V134.901Z" fill="white"/>
<path d="M522.519 134.901H499.136V158.276H522.519V134.901Z" fill="white"/>
<path d="M549.69 134.901H526.306V158.279H549.69V134.901Z" fill="white"/>
<path d="M576.86 134.901H553.477V158.276H576.86V134.901Z" fill="white"/>
<path d="M604.031 134.901H580.647V158.276H604.031V134.901Z" fill="white"/>
<path d="M332.33 162.071H308.946V185.446H332.33V162.071Z" fill="white"/>
<path d="M359.5 162.071H336.117V185.597H359.5V162.071Z" fill="white"/>
<path d="M386.671 162.071H363.288V185.446H386.671V162.071Z" fill="white"/>
<path d="M413.84 162.071H390.457V185.445H413.84V162.071Z" fill="white"/>
<path d="M441.01 162.071H417.626V185.448H441.01V162.071Z" fill="white"/>
<path d="M468.181 162.071H444.797V185.445H468.181V162.071Z" fill="white"/>
<path d="M495.35 162.071H471.967V185.597H495.35V162.071Z" fill="white"/>
<path d="M522.519 162.071H499.136V185.445H522.519V162.071Z" fill="white"/>
<path d="M549.69 162.071H526.306V185.448H549.69V162.071Z" fill="white"/>
<path d="M576.86 162.071H553.477V185.445H576.86V162.071Z" fill="white"/>
<path d="M604.03 162.071H580.647V185.445H604.03V162.071Z" fill="white"/>
<path d="M305.16 189.241H281.776V212.615H305.16V189.241Z" fill="white"/>
<path d="M332.33 189.241H308.946V212.616H332.33V189.241Z" fill="white"/>
<path d="M359.5 189.241H336.117V212.766H359.5V189.241Z" fill="white"/>
<path d="M386.671 189.241H363.288V212.616H386.671V189.241Z" fill="white"/>
<path d="M413.84 189.241H390.457V212.614H413.84V189.241Z" fill="white"/>
<path d="M441.01 189.241H417.626V212.618H441.01V189.241Z" fill="white"/>
<path d="M468.181 189.241H444.797V212.614H468.181V189.241Z" fill="white"/>
<path d="M495.35 189.241H471.967V212.766H495.35V189.241Z" fill="white"/>
<path d="M522.519 189.241H499.136V212.614H522.519V189.241Z" fill="white"/>
<path d="M549.69 189.241H526.306V212.618H549.69V189.241Z" fill="white"/>
<path d="M576.86 189.241H553.477V212.614H576.86V189.241Z" fill="white"/>
<path d="M604.031 189.241H580.647V212.614H604.031V189.241Z" fill="white"/>
<path d="M631.2 189.241H607.816V212.766H631.2V189.241Z" fill="white"/>
<path d="M305.16 216.411H281.776V239.785H305.16V216.411Z" fill="white"/>
<path d="M332.33 216.411H308.946V239.786H332.33V216.411Z" fill="white"/>
<path d="M359.5 216.411H336.117V239.936H359.5V216.411Z" fill="white"/>
<path d="M386.671 216.411H363.288V239.786H386.671V216.411Z" fill="white"/>
<path d="M413.84 216.411H390.457V239.784H413.84V216.411Z" fill="white"/>
<path d="M441.01 216.411H417.626V239.788H441.01V216.411Z" fill="white"/>
<path d="M468.181 216.411H444.797V239.784H468.181V216.411Z" fill="white"/>
<path d="M495.35 216.411H471.967V239.936H495.35V216.411Z" fill="white"/>
<path d="M522.519 216.411H499.136V239.784H522.519V216.411Z" fill="white"/>
<path d="M549.69 216.411H526.306V239.788H549.69V216.411Z" fill="white"/>
<path d="M576.86 216.411H553.477V239.784H576.86V216.411Z" fill="white"/>
<path d="M604.031 216.411H580.647V239.784H604.031V216.411Z" fill="white"/>
<path d="M631.2 216.411H607.816V239.936H631.2V216.411Z" fill="white"/>
<path d="M305.16 243.582H281.776V266.956H305.16V243.582Z" fill="white"/>
<path d="M332.33 243.582H308.946V266.957H332.33V243.582Z" fill="white"/>
<path d="M359.5 243.582H336.117V267.107H359.5V243.582Z" fill="white"/>
<path d="M386.671 243.582H363.288V266.957H386.671V243.582Z" fill="white"/>
<path d="M413.84 243.582H390.457V266.955H413.84V243.582Z" fill="white"/>
<path d="M441.01 243.582H417.626V266.959H441.01V243.582Z" fill="white"/>
<path d="M468.181 243.582H444.797V266.955H468.181V243.582Z" fill="white"/>
<path d="M495.35 243.582H471.967V267.107H495.35V243.582Z" fill="white"/>
<path d="M522.519 243.582H499.136V266.955H522.519V243.582Z" fill="white"/>
<path d="M549.69 243.582H526.306V266.959H549.69V243.582Z" fill="white"/>
<path d="M576.86 243.582H553.477V266.955H576.86V243.582Z" fill="white"/>
<path d="M604.03 243.582H580.647V266.955H604.03V243.582Z" fill="white"/>
<path d="M631.2 243.582H607.816V267.107H631.2V243.582Z" fill="#FFC700"/>
<path d="M305.16 270.751H281.776V294.126H305.16V270.751Z" fill="white"/>
<path d="M332.33 270.751H308.946V294.126H332.33V270.751Z" fill="white"/>
<path d="M359.5 270.751H336.117V294.277H359.5V270.751Z" fill="white"/>
<path d="M386.671 270.751H363.288V294.126H386.671V270.751Z" fill="white"/>
<path d="M413.84 270.751H390.457V294.125H413.84V270.751Z" fill="white"/>
<path d="M441.01 270.751H417.626V294.128H441.01V270.751Z" fill="white"/>
<path d="M468.181 270.751H444.797V294.125H468.181V270.751Z" fill="white"/>
<path d="M495.35 270.751H471.967V294.277H495.35V270.751Z" fill="white"/>
<path d="M522.519 270.751H499.136V294.125H522.519V270.751Z" fill="white"/>
<path d="M549.69 270.751H526.306V294.128H549.69V270.751Z" fill="white"/>
<path d="M576.86 270.751H553.477V294.125H576.86V270.751Z" fill="white"/>
<path d="M604.031 270.751H580.647V294.125H604.031V270.751Z" fill="white"/>
<path d="M631.2 270.751H607.816V294.277H631.2V270.751Z" fill="white"/>
<path d="M305.16 297.921H281.776V321.296H305.16V297.921Z" fill="white"/>
<path d="M332.33 297.921H308.946V321.296H332.33V297.921Z" fill="white"/>
<path d="M359.5 297.921H336.117V321.447H359.5V297.921Z" fill="white"/>
<path d="M386.671 297.921H363.288V321.296H386.671V297.921Z" fill="white"/>
<path d="M413.84 297.921H390.457V321.295H413.84V297.921Z" fill="white"/>
<path d="M441.01 297.921H417.626V321.298H441.01V297.921Z" fill="white"/>
<path d="M468.181 297.921H444.797V321.295H468.181V297.921Z" fill="white"/>
<path d="M495.35 297.921H471.967V321.447H495.35V297.921Z" fill="white"/>
<path d="M522.519 297.921H499.136V321.295H522.519V297.921Z" fill="white"/>
<path d="M549.69 297.921H526.306V321.298H549.69V297.921Z" fill="white"/>
<path d="M576.86 297.921H553.477V321.295H576.86V297.921Z" fill="white"/>
<path d="M604.031 297.921H580.647V321.295H604.031V297.921Z" fill="white"/>
<path d="M631.2 297.921H607.816V321.447H631.2V297.921Z" fill="white"/>
<path d="M332.33 325.091H308.946V348.466H332.33V325.091Z" fill="white"/>
<path d="M359.5 325.091H336.117V348.616H359.5V325.091Z" fill="white"/>
<path d="M386.671 325.091H363.288V348.466H386.671V325.091Z" fill="white"/>
<path d="M413.84 325.091H390.457V348.464H413.84V325.091Z" fill="white"/>
<path d="M441.01 325.091H417.626V348.468H441.01V325.091Z" fill="white"/>
<path d="M468.181 325.091H444.797V348.464H468.181V325.091Z" fill="white"/>
<path d="M495.35 325.091H471.967V348.616H495.35V325.091Z" fill="white"/>
<path d="M522.519 325.091H499.136V348.464H522.519V325.091Z" fill="white"/>
<path d="M549.69 325.091H526.306V348.468H549.69V325.091Z" fill="white"/>
<path d="M576.86 325.091H553.477V348.464H576.86V325.091Z" fill="white"/>
<path d="M604.031 325.091H580.647V348.464H604.031V325.091Z" fill="white"/>
<path d="M332.33 352.262H308.946V375.637H332.33V352.262Z" fill="white"/>
<path d="M359.5 352.262H336.117V375.787H359.5V352.262Z" fill="white"/>
<path d="M386.671 352.262H363.288V375.637H386.671V352.262Z" fill="white"/>
<path d="M413.84 352.262H390.457V375.635H413.84V352.262Z" fill="white"/>
<path d="M441.01 352.262H417.626V375.639H441.01V352.262Z" fill="white"/>
<path d="M468.181 352.262H444.797V375.635H468.181V352.262Z" fill="white"/>
<path d="M495.35 352.262H471.967V375.787H495.35V352.262Z" fill="white"/>
<path d="M522.519 352.262H499.136V375.635H522.519V352.262Z" fill="white"/>
<path d="M549.69 352.262H526.306V375.639H549.69V352.262Z" fill="white"/>
<path d="M576.86 352.262H553.477V375.635H576.86V352.262Z" fill="white"/>
<path d="M604.031 352.262H580.647V375.635H604.031V352.262Z" fill="white"/>
<path d="M359.5 379.431H336.117V402.96H359.5V379.431Z" fill="white"/>
<path d="M386.671 379.431H363.288V402.81H386.671V379.431Z" fill="white"/>
<path d="M413.84 379.431H390.457V402.808H413.84V379.431Z" fill="white"/>
<path d="M441.01 379.431H417.626V402.812H441.01V379.431Z" fill="white"/>
<path d="M468.181 379.431H444.797V402.808H468.181V379.431Z" fill="white"/>
<path d="M495.35 379.431H471.967V402.96H495.35V379.431Z" fill="white"/>
<path d="M522.519 379.431H499.136V402.808H522.519V379.431Z" fill="white"/>
<path d="M549.69 379.431H526.306V402.812H549.69V379.431Z" fill="white"/>
<path d="M576.86 379.431H553.477V402.808H576.86V379.431Z" fill="white"/>
<path d="M413.84 406.601H390.457V429.974H413.84V406.601Z" fill="white"/>
<path d="M441.01 406.601H417.626V429.978H441.01V406.601Z" fill="white"/>
<path d="M468.181 406.601H444.797V429.975H468.181V406.601Z" fill="#FFC700"/>
<path d="M495.35 406.601H471.967V430.126H495.35V406.601Z" fill="white"/>
<path d="M522.519 406.601H499.136V429.974H522.519V406.601Z" fill="white"/>
<path d="M305.156 162.067H281.776V185.446H305.156V162.067Z" fill="white" fill-opacity="0.1"/>
<path d="M305.156 134.896H281.776V158.276H305.156V134.896Z" fill="white" fill-opacity="0.1"/>
<path d="M305.156 107.877H281.776V131.257H305.156V107.877Z" fill="white" fill-opacity="0.1"/>
<path d="M332.326 107.877H308.946V131.257H332.326V107.877Z" fill="white" fill-opacity="0.1"/>
<path d="M305.156 80.5552H281.776V103.935H305.156V80.5552Z" fill="#FFC700"/>
<path d="M332.326 80.5553H308.946V103.935H332.326V80.5553Z" fill="white" fill-opacity="0.1"/>
<path d="M359.496 80.5553H336.116V103.935H359.496V80.5553Z" fill="white" fill-opacity="0.1"/>
<path d="M386.666 80.5553H363.287V103.935H386.666V80.5553Z" fill="white" fill-opacity="0.1"/>
<path d="M607.816 162.067H631.196V185.446H607.816V162.067Z" fill="white" fill-opacity="0.1"/>
<path d="M607.816 134.896H631.196V158.276H607.816V134.896Z" fill="white" fill-opacity="0.1"/>
<path d="M607.816 107.877H631.196V131.257H607.816V107.877Z" fill="white" fill-opacity="0.1"/>
<path d="M580.646 107.877H604.026V131.257H580.646V107.877Z" fill="white" fill-opacity="0.1"/>
<path d="M607.816 80.5553H631.196V103.935H607.816V80.5553Z" fill="white" fill-opacity="0.1"/>
<path d="M580.646 80.5553H604.026V103.935H580.646V80.5553Z" fill="white" fill-opacity="0.1"/>
<path d="M553.476 80.5553H576.856V103.935H553.476V80.5553Z" fill="white" fill-opacity="0.1"/>
<path d="M526.306 80.5553H549.685V103.935H526.306V80.5553Z" fill="white" fill-opacity="0.1"/>
<path d="M305.156 348.463H281.776V325.084H305.156V348.463Z" fill="white" fill-opacity="0.1"/>
<path d="M305.156 375.634H281.776V352.254H305.156V375.634Z" fill="white" fill-opacity="0.1"/>
<path d="M305.156 402.653H281.776V379.273H305.156V402.653Z" fill="white" fill-opacity="0.1"/>
<path d="M332.326 402.653H308.946V379.273H332.326V402.653Z" fill="white" fill-opacity="0.1"/>
<path d="M305.156 429.975H281.776V406.595H305.156V429.975Z" fill="white" fill-opacity="0.1"/>
<path d="M332.326 429.975H308.946V406.595H332.326V429.975Z" fill="white" fill-opacity="0.1"/>
<path d="M359.496 429.975H336.116V406.595H359.496V429.975Z" fill="white" fill-opacity="0.1"/>
<path d="M386.666 429.975H363.287V406.595H386.666V429.975Z" fill="white" fill-opacity="0.1"/>
<path d="M607.816 348.463H631.196V325.084H607.816V348.463Z" fill="white" fill-opacity="0.1"/>
<path d="M607.816 375.634H631.196V352.254H607.816V375.634Z" fill="white" fill-opacity="0.1"/>
<path d="M607.816 402.653H631.196V379.273H607.816V402.653Z" fill="white" fill-opacity="0.1"/>
<path d="M580.646 402.653H604.026V379.273H580.646V402.653Z" fill="white" fill-opacity="0.1"/>
<path d="M607.816 429.975H631.196V406.595H607.816V429.975Z" fill="#FFC700"/>
<path d="M580.646 429.975H604.026V406.595H580.646V429.975Z" fill="white" fill-opacity="0.1"/>
<path d="M553.476 429.975H576.856V406.595H553.476V429.975Z" fill="white" fill-opacity="0.1"/>
<path d="M526.306 429.975H549.685V406.595H526.306V429.975Z" fill="white" fill-opacity="0.1"/>
</g>
<path d="M21.3 475.2C20.936 475.2 20.65 474.914 20.65 474.55C20.65 474.186 20.936 473.9 21.3 473.9C21.664 473.9 21.95 474.186 21.95 474.55C21.95 474.914 21.664 475.2 21.3 475.2ZM22.6 475.2C22.236 475.2 21.95 474.914 21.95 474.55C21.95 474.186 22.236 473.9 22.6 473.9C22.964 473.9 23.25 474.186 23.25 474.55C23.25 474.914 22.964 475.2 22.6 475.2ZM23.9 475.2C23.536 475.2 23.25 474.914 23.25 474.55C23.25 474.186 23.536 473.9 23.9 473.9C24.264 473.9 24.55 474.186 24.55 474.55C24.55 474.914 24.264 475.2 23.9 475.2ZM25.2 475.2C24.836 475.2 24.55 474.914 24.55 474.55C24.55 474.186 24.836 473.9 25.2 473.9C25.564 473.9 25.85 474.186 25.85 474.55C25.85 474.914 25.564 475.2 25.2 475.2ZM21.3 477.15C20.936 477.15 20.65 476.864 20.65 476.5C20.65 476.136 20.936 475.85 21.3 475.85C21.664 475.85 21.95 476.136 21.95 476.5C21.95 476.864 21.664 477.15 21.3 477.15ZM26.5 477.15C26.136 477.15 25.85 476.864 25.85 476.5C25.85 476.136 26.136 475.85 26.5 475.85C26.864 475.85 27.15 476.136 27.15 476.5C27.15 476.864 26.864 477.15 26.5 477.15ZM21.3 479.1C20.936 479.1 20.65 478.814 20.65 478.45C20.65 478.086 20.936 477.8 21.3 477.8C21.664 477.8 21.95 478.086 21.95 478.45C21.95 478.814 21.664 479.1 21.3 479.1ZM22.6 479.1C22.236 479.1 21.95 478.814 21.95 478.45C21.95 478.086 22.236 477.8 22.6 477.8C22.964 477.8 23.25 478.086 23.25 478.45C23.25 478.814 22.964 479.1 22.6 479.1ZM23.9 479.1C23.536 479.1 23.25 478.814 23.25 478.45C23.25 478.086 23.536 477.8 23.9 477.8C24.264 477.8 24.55 478.086 24.55 478.45C24.55 478.814 24.264 479.1 23.9 479.1ZM25.2 479.1C24.836 479.1 24.55 478.814 24.55 478.45C24.55 478.086 24.836 477.8 25.2 477.8C25.564 477.8 25.85 478.086 25.85 478.45C25.85 478.814 25.564 479.1 25.2 479.1ZM21.3 481.05C20.936 481.05 20.65 480.764 20.65 480.4C20.65 480.036 20.936 479.75 21.3 479.75C21.664 479.75 21.95 480.036 21.95 480.4C21.95 480.764 21.664 481.05 21.3 481.05ZM21.3 483C20.936 483 20.65 482.714 20.65 482.35C20.65 481.986 20.936 481.7 21.3 481.7C21.664 481.7 21.95 481.986 21.95 482.35C21.95 482.714 21.664 483 21.3 483ZM29.0949 475.2C28.7309 475.2 28.4449 474.914 28.4449 474.55C28.4449 474.186 28.7309 473.9 29.0949 473.9C29.4589 473.9 29.7449 474.186 29.7449 474.55C29.7449 474.914 29.4589 475.2 29.0949 475.2ZM29.0949 477.15C28.7309 477.15 28.4449 476.864 28.4449 476.5C28.4449 476.136 28.7309 475.85 29.0949 475.85C29.4589 475.85 29.7449 476.136 29.7449 476.5C29.7449 476.864 29.4589 477.15 29.0949 477.15ZM31.6949 477.15C31.3309 477.15 31.0449 476.864 31.0449 476.5C31.0449 476.136 31.3309 475.85 31.6949 475.85C32.0589 475.85 32.3449 476.136 32.3449 476.5C32.3449 476.864 32.0589 477.15 31.6949 477.15ZM29.0949 479.1C28.7309 479.1 28.4449 478.814 28.4449 478.45C28.4449 478.086 28.7309 477.8 29.0949 477.8C29.4589 477.8 29.7449 478.086 29.7449 478.45C29.7449 478.814 29.4589 479.1 29.0949 479.1ZM30.3949 479.1C30.0309 479.1 29.7449 478.814 29.7449 478.45C29.7449 478.086 30.0309 477.8 30.3949 477.8C30.7589 477.8 31.0449 478.086 31.0449 478.45C31.0449 478.814 30.7589 479.1 30.3949 479.1ZM32.9949 479.1C32.6309 479.1 32.3449 478.814 32.3449 478.45C32.3449 478.086 32.6309 477.8 32.9949 477.8C33.3589 477.8 33.6449 478.086 33.6449 478.45C33.6449 478.814 33.3589 479.1 32.9949 479.1ZM29.0949 481.05C28.7309 481.05 28.4449 480.764 28.4449 480.4C28.4449 480.036 28.7309 479.75 29.0949 479.75C29.4589 479.75 29.7449 480.036 29.7449 480.4C29.7449 480.764 29.4589 481.05 29.0949 481.05ZM32.9949 481.05C32.6309 481.05 32.3449 480.764 32.3449 480.4C32.3449 480.036 32.6309 479.75 32.9949 479.75C33.3589 479.75 33.6449 480.036 33.6449 480.4C33.6449 480.764 33.3589 481.05 32.9949 481.05ZM29.0949 483C28.7309 483 28.4449 482.714 28.4449 482.35C28.4449 481.986 28.7309 481.7 29.0949 481.7C29.4589 481.7 29.7449 481.986 29.7449 482.35C29.7449 482.714 29.4589 483 29.0949 483ZM32.9949 483C32.6309 483 32.3449 482.714 32.3449 482.35C32.3449 481.986 32.6309 481.7 32.9949 481.7C33.3589 481.7 33.6449 481.986 33.6449 482.35C33.6449 482.714 33.3589 483 32.9949 483ZM36.8949 477.15C36.5309 477.15 36.2449 476.864 36.2449 476.5C36.2449 476.136 36.5309 475.85 36.8949 475.85C37.2589 475.85 37.5449 476.136 37.5449 476.5C37.5449 476.864 37.2589 477.15 36.8949 477.15ZM38.1949 477.15C37.8309 477.15 37.5449 476.864 37.5449 476.5C37.5449 476.136 37.8309 475.85 38.1949 475.85C38.5589 475.85 38.8449 476.136 38.8449 476.5C38.8449 476.864 38.5589 477.15 38.1949 477.15ZM35.5949 479.1C35.2309 479.1 34.9449 478.814 34.9449 478.45C34.9449 478.086 35.2309 477.8 35.5949 477.8C35.9589 477.8 36.2449 478.086 36.2449 478.45C36.2449 478.814 35.9589 479.1 35.5949 479.1ZM39.4949 479.1C39.1309 479.1 38.8449 478.814 38.8449 478.45C38.8449 478.086 39.1309 477.8 39.4949 477.8C39.8589 477.8 40.1449 478.086 40.1449 478.45C40.1449 478.814 39.8589 479.1 39.4949 479.1ZM35.5949 481.05C35.2309 481.05 34.9449 480.764 34.9449 480.4C34.9449 480.036 35.2309 479.75 35.5949 479.75C35.9589 479.75 36.2449 480.036 36.2449 480.4C36.2449 480.764 35.9589 481.05 35.5949 481.05ZM39.4949 481.05C39.1309 481.05 38.8449 480.764 38.8449 480.4C38.8449 480.036 39.1309 479.75 39.4949 479.75C39.8589 479.75 40.1449 480.036 40.1449 480.4C40.1449 480.764 39.8589 481.05 39.4949 481.05ZM36.8949 483C36.5309 483 36.2449 482.714 36.2449 482.35C36.2449 481.986 36.5309 481.7 36.8949 481.7C37.2589 481.7 37.5449 481.986 37.5449 482.35C37.5449 482.714 37.2589 483 36.8949 483ZM38.1949 483C37.8309 483 37.5449 482.714 37.5449 482.35C37.5449 481.986 37.8309 481.7 38.1949 481.7C38.5589 481.7 38.8449 481.986 38.8449 482.35C38.8449 482.714 38.5589 483 38.1949 483ZM42.0949 477.15C41.7309 477.15 41.4449 476.864 41.4449 476.5C41.4449 476.136 41.7309 475.85 42.0949 475.85C42.4589 475.85 42.7449 476.136 42.7449 476.5C42.7449 476.864 42.4589 477.15 42.0949 477.15ZM44.6949 477.15C44.3309 477.15 44.0449 476.864 44.0449 476.5C44.0449 476.136 44.3309 475.85 44.6949 475.85C45.0589 475.85 45.3449 476.136 45.3449 476.5C45.3449 476.864 45.0589 477.15 44.6949 477.15ZM42.0949 479.1C41.7309 479.1 41.4449 478.814 41.4449 478.45C41.4449 478.086 41.7309 477.8 42.0949 477.8C42.4589 477.8 42.7449 478.086 42.7449 478.45C42.7449 478.814 42.4589 479.1 42.0949 479.1ZM43.3949 479.1C43.0309 479.1 42.7449 478.814 42.7449 478.45C42.7449 478.086 43.0309 477.8 43.3949 477.8C43.7589 477.8 44.0449 478.086 44.0449 478.45C44.0449 478.814 43.7589 479.1 43.3949 479.1ZM45.9949 479.1C45.6309 479.1 45.3449 478.814 45.3449 478.45C45.3449 478.086 45.6309 477.8 45.9949 477.8C46.3589 477.8 46.6449 478.086 46.6449 478.45C46.6449 478.814 46.3589 479.1 45.9949 479.1ZM42.0949 481.05C41.7309 481.05 41.4449 480.764 41.4449 480.4C41.4449 480.036 41.7309 479.75 42.0949 479.75C42.4589 479.75 42.7449 480.036 42.7449 480.4C42.7449 480.764 42.4589 481.05 42.0949 481.05ZM45.9949 481.05C45.6309 481.05 45.3449 480.764 45.3449 480.4C45.3449 480.036 45.6309 479.75 45.9949 479.75C46.3589 479.75 46.6449 480.036 46.6449 480.4C46.6449 480.764 46.3589 481.05 45.9949 481.05ZM42.0949 483C41.7309 483 41.4449 482.714 41.4449 482.35C41.4449 481.986 41.7309 481.7 42.0949 481.7C42.4589 481.7 42.7449 481.986 42.7449 482.35C42.7449 482.714 42.4589 483 42.0949 483ZM45.9949 483C45.6309 483 45.3449 482.714 45.3449 482.35C45.3449 481.986 45.6309 481.7 45.9949 481.7C46.3589 481.7 46.6449 481.986 46.6449 482.35C46.6449 482.714 46.3589 483 45.9949 483ZM49.8949 477.15C49.5309 477.15 49.2449 476.864 49.2449 476.5C49.2449 476.136 49.5309 475.85 49.8949 475.85C50.2589 475.85 50.5449 476.136 50.5449 476.5C50.5449 476.864 50.2589 477.15 49.8949 477.15ZM51.1949 477.15C50.8309 477.15 50.5449 476.864 50.5449 476.5C50.5449 476.136 50.8309 475.85 51.1949 475.85C51.5589 475.85 51.8449 476.136 51.8449 476.5C51.8449 476.864 51.5589 477.15 51.1949 477.15ZM48.5949 479.1C48.2309 479.1 47.9449 478.814 47.9449 478.45C47.9449 478.086 48.2309 477.8 48.5949 477.8C48.9589 477.8 49.2449 478.086 49.2449 478.45C49.2449 478.814 48.9589 479.1 48.5949 479.1ZM52.4949 479.1C52.1309 479.1 51.8449 478.814 51.8449 478.45C51.8449 478.086 52.1309 477.8 52.4949 477.8C52.8589 477.8 53.1449 478.086 53.1449 478.45C53.1449 478.814 52.8589 479.1 52.4949 479.1ZM48.5949 481.05C48.2309 481.05 47.9449 480.764 47.9449 480.4C47.9449 480.036 48.2309 479.75 48.5949 479.75C48.9589 479.75 49.2449 480.036 49.2449 480.4C49.2449 480.764 48.9589 481.05 48.5949 481.05ZM49.8949 481.05C49.5309 481.05 49.2449 480.764 49.2449 480.4C49.2449 480.036 49.5309 479.75 49.8949 479.75C50.2589 479.75 50.5449 480.036 50.5449 480.4C50.5449 480.764 50.2589 481.05 49.8949 481.05ZM51.1949 481.05C50.8309 481.05 50.5449 480.764 50.5449 480.4C50.5449 480.036 50.8309 479.75 51.1949 479.75C51.5589 479.75 51.8449 480.036 51.8449 480.4C51.8449 480.764 51.5589 481.05 51.1949 481.05ZM49.8949 483C49.5309 483 49.2449 482.714 49.2449 482.35C49.2449 481.986 49.5309 481.7 49.8949 481.7C50.2589 481.7 50.5449 481.986 50.5449 482.35C50.5449 482.714 50.2589 483 49.8949 483ZM51.1949 483C50.8309 483 50.5449 482.714 50.5449 482.35C50.5449 481.986 50.8309 481.7 51.1949 481.7C51.5589 481.7 51.8449 481.986 51.8449 482.35C51.8449 482.714 51.5589 483 51.1949 483ZM52.4949 483C52.1309 483 51.8449 482.714 51.8449 482.35C51.8449 481.986 52.1309 481.7 52.4949 481.7C52.8589 481.7 53.1449 481.986 53.1449 482.35C53.1449 482.714 52.8589 483 52.4949 483ZM60.2975 475.2C59.9335 475.2 59.6475 474.914 59.6475 474.55C59.6475 474.186 59.9335 473.9 60.2975 473.9C60.6615 473.9 60.9475 474.186 60.9475 474.55C60.9475 474.914 60.6615 475.2 60.2975 475.2ZM58.9975 477.15C58.6335 477.15 58.3475 476.864 58.3475 476.5C58.3475 476.136 58.6335 475.85 58.9975 475.85C59.3615 475.85 59.6475 476.136 59.6475 476.5C59.6475 476.864 59.3615 477.15 58.9975 477.15ZM60.2975 477.15C59.9335 477.15 59.6475 476.864 59.6475 476.5C59.6475 476.136 59.9335 475.85 60.2975 475.85C60.6615 475.85 60.9475 476.136 60.9475 476.5C60.9475 476.864 60.6615 477.15 60.2975 477.15ZM57.6975 479.1C57.3335 479.1 57.0475 478.814 57.0475 478.45C57.0475 478.086 57.3335 477.8 57.6975 477.8C58.0615 477.8 58.3475 478.086 58.3475 478.45C58.3475 478.814 58.0615 479.1 57.6975 479.1ZM60.2975 479.1C59.9335 479.1 59.6475 478.814 59.6475 478.45C59.6475 478.086 59.9335 477.8 60.2975 477.8C60.6615 477.8 60.9475 478.086 60.9475 478.45C60.9475 478.814 60.6615 479.1 60.2975 479.1ZM57.6975 481.05C57.3335 481.05 57.0475 480.764 57.0475 480.4C57.0475 480.036 57.3335 479.75 57.6975 479.75C58.0615 479.75 58.3475 480.036 58.3475 480.4C58.3475 480.764 58.0615 481.05 57.6975 481.05ZM58.9975 481.05C58.6335 481.05 58.3475 480.764 58.3475 480.4C58.3475 480.036 58.6335 479.75 58.9975 479.75C59.3615 479.75 59.6475 480.036 59.6475 480.4C59.6475 480.764 59.3615 481.05 58.9975 481.05ZM60.2975 481.05C59.9335 481.05 59.6475 480.764 59.6475 480.4C59.6475 480.036 59.9335 479.75 60.2975 479.75C60.6615 479.75 60.9475 480.036 60.9475 480.4C60.9475 480.764 60.6615 481.05 60.2975 481.05ZM61.5975 481.05C61.2335 481.05 60.9475 480.764 60.9475 480.4C60.9475 480.036 61.2335 479.75 61.5975 479.75C61.9615 479.75 62.2475 480.036 62.2475 480.4C62.2475 480.764 61.9615 481.05 61.5975 481.05ZM60.2975 483C59.9335 483 59.6475 482.714 59.6475 482.35C59.6475 481.986 59.9335 481.7 60.2975 481.7C60.6615 481.7 60.9475 481.986 60.9475 482.35C60.9475 482.714 60.6615 483 60.2975 483ZM64.1975 477.15C63.8335 477.15 63.5475 476.864 63.5475 476.5C63.5475 476.136 63.8335 475.85 64.1975 475.85C64.5615 475.85 64.8475 476.136 64.8475 476.5C64.8475 476.864 64.5615 477.15 64.1975 477.15ZM65.4975 477.15C65.1335 477.15 64.8475 476.864 64.8475 476.5C64.8475 476.136 65.1335 475.85 65.4975 475.85C65.8615 475.85 66.1475 476.136 66.1475 476.5C66.1475 476.864 65.8615 477.15 65.4975 477.15ZM66.7975 477.15C66.4335 477.15 66.1475 476.864 66.1475 476.5C66.1475 476.136 66.4335 475.85 66.7975 475.85C67.1615 475.85 67.4475 476.136 67.4475 476.5C67.4475 476.864 67.1615 477.15 66.7975 477.15ZM65.4975 479.1C65.1335 479.1 64.8475 478.814 64.8475 478.45C64.8475 478.086 65.1335 477.8 65.4975 477.8C65.8615 477.8 66.1475 478.086 66.1475 478.45C66.1475 478.814 65.8615 479.1 65.4975 479.1ZM66.7975 479.1C66.4335 479.1 66.1475 478.814 66.1475 478.45C66.1475 478.086 66.4335 477.8 66.7975 477.8C67.1615 477.8 67.4475 478.086 67.4475 478.45C67.4475 478.814 67.1615 479.1 66.7975 479.1ZM68.0975 479.1C67.7335 479.1 67.4475 478.814 67.4475 478.45C67.4475 478.086 67.7335 477.8 68.0975 477.8C68.4615 477.8 68.7475 478.086 68.7475 478.45C68.7475 478.814 68.4615 479.1 68.0975 479.1ZM64.1975 481.05C63.8335 481.05 63.5475 480.764 63.5475 480.4C63.5475 480.036 63.8335 479.75 64.1975 479.75C64.5615 479.75 64.8475 480.036 64.8475 480.4C64.8475 480.764 64.5615 481.05 64.1975 481.05ZM68.0975 481.05C67.7335 481.05 67.4475 480.764 67.4475 480.4C67.4475 480.036 67.7335 479.75 68.0975 479.75C68.4615 479.75 68.7475 480.036 68.7475 480.4C68.7475 480.764 68.4615 481.05 68.0975 481.05ZM65.4975 483C65.1335 483 64.8475 482.714 64.8475 482.35C64.8475 481.986 65.1335 481.7 65.4975 481.7C65.8615 481.7 66.1475 481.986 66.1475 482.35C66.1475 482.714 65.8615 483 65.4975 483ZM66.7975 483C66.4335 483 66.1475 482.714 66.1475 482.35C66.1475 481.986 66.4335 481.7 66.7975 481.7C67.1615 481.7 67.4475 481.986 67.4475 482.35C67.4475 482.714 67.1615 483 66.7975 483ZM68.0975 483C67.7335 483 67.4475 482.714 67.4475 482.35C67.4475 481.986 67.7335 481.7 68.0975 481.7C68.4615 481.7 68.7475 481.986 68.7475 482.35C68.7475 482.714 68.4615 483 68.0975 483ZM73.3 477.15C72.936 477.15 72.65 476.864 72.65 476.5C72.65 476.136 72.936 475.85 73.3 475.85C73.664 475.85 73.95 476.136 73.95 476.5C73.95 476.864 73.664 477.15 73.3 477.15ZM74.6 477.15C74.236 477.15 73.95 476.864 73.95 476.5C73.95 476.136 74.236 475.85 74.6 475.85C74.964 475.85 75.25 476.136 75.25 476.5C75.25 476.864 74.964 477.15 74.6 477.15ZM75.9 477.15C75.536 477.15 75.25 476.864 75.25 476.5C75.25 476.136 75.536 475.85 75.9 475.85C76.264 475.85 76.55 476.136 76.55 476.5C76.55 476.864 76.264 477.15 75.9 477.15ZM73.3 479.1C72.936 479.1 72.65 478.814 72.65 478.45C72.65 478.086 72.936 477.8 73.3 477.8C73.664 477.8 73.95 478.086 73.95 478.45C73.95 478.814 73.664 479.1 73.3 479.1ZM77.2 479.1C76.836 479.1 76.55 478.814 76.55 478.45C76.55 478.086 76.836 477.8 77.2 477.8C77.564 477.8 77.85 478.086 77.85 478.45C77.85 478.814 77.564 479.1 77.2 479.1ZM73.3 481.05C72.936 481.05 72.65 480.764 72.65 480.4C72.65 480.036 72.936 479.75 73.3 479.75C73.664 479.75 73.95 480.036 73.95 480.4C73.95 480.764 73.664 481.05 73.3 481.05ZM77.2 481.05C76.836 481.05 76.55 480.764 76.55 480.4C76.55 480.036 76.836 479.75 77.2 479.75C77.564 479.75 77.85 480.036 77.85 480.4C77.85 480.764 77.564 481.05 77.2 481.05ZM73.3 483C72.936 483 72.65 482.714 72.65 482.35C72.65 481.986 72.936 481.7 73.3 481.7C73.664 481.7 73.95 481.986 73.95 482.35C73.95 482.714 73.664 483 73.3 483ZM74.6 483C74.236 483 73.95 482.714 73.95 482.35C73.95 481.986 74.236 481.7 74.6 481.7C74.964 481.7 75.25 481.986 75.25 482.35C75.25 482.714 74.964 483 74.6 483ZM75.9 483C75.536 483 75.25 482.714 75.25 482.35C75.25 481.986 75.536 481.7 75.9 481.7C76.264 481.7 76.55 481.986 76.55 482.35C76.55 482.714 76.264 483 75.9 483ZM73.3 484.95C72.936 484.95 72.65 484.664 72.65 484.3C72.65 483.936 72.936 483.65 73.3 483.65C73.664 483.65 73.95 483.936 73.95 484.3C73.95 484.664 73.664 484.95 73.3 484.95ZM79.8 477.15C79.436 477.15 79.15 476.864 79.15 476.5C79.15 476.136 79.436 475.85 79.8 475.85C80.164 475.85 80.45 476.136 80.45 476.5C80.45 476.864 80.164 477.15 79.8 477.15ZM82.4 477.15C82.036 477.15 81.75 476.864 81.75 476.5C81.75 476.136 82.036 475.85 82.4 475.85C82.764 475.85 83.05 476.136 83.05 476.5C83.05 476.864 82.764 477.15 82.4 477.15ZM83.7 477.15C83.336 477.15 83.05 476.864 83.05 476.5C83.05 476.136 83.336 475.85 83.7 475.85C84.064 475.85 84.35 476.136 84.35 476.5C84.35 476.864 84.064 477.15 83.7 477.15ZM79.8 479.1C79.436 479.1 79.15 478.814 79.15 478.45C79.15 478.086 79.436 477.8 79.8 477.8C80.164 477.8 80.45 478.086 80.45 478.45C80.45 478.814 80.164 479.1 79.8 479.1ZM81.1 479.1C80.736 479.1 80.45 478.814 80.45 478.45C80.45 478.086 80.736 477.8 81.1 477.8C81.464 477.8 81.75 478.086 81.75 478.45C81.75 478.814 81.464 479.1 81.1 479.1ZM79.8 481.05C79.436 481.05 79.15 480.764 79.15 480.4C79.15 480.036 79.436 479.75 79.8 479.75C80.164 479.75 80.45 480.036 80.45 480.4C80.45 480.764 80.164 481.05 79.8 481.05ZM79.8 483C79.436 483 79.15 482.714 79.15 482.35C79.15 481.986 79.436 481.7 79.8 481.7C80.164 481.7 80.45 481.986 80.45 482.35C80.45 482.714 80.164 483 79.8 483ZM87.6 477.15C87.236 477.15 86.95 476.864 86.95 476.5C86.95 476.136 87.236 475.85 87.6 475.85C87.964 475.85 88.25 476.136 88.25 476.5C88.25 476.864 87.964 477.15 87.6 477.15ZM88.9 477.15C88.536 477.15 88.25 476.864 88.25 476.5C88.25 476.136 88.536 475.85 88.9 475.85C89.264 475.85 89.55 476.136 89.55 476.5C89.55 476.864 89.264 477.15 88.9 477.15ZM86.3 479.1C85.936 479.1 85.65 478.814 85.65 478.45C85.65 478.086 85.936 477.8 86.3 477.8C86.664 477.8 86.95 478.086 86.95 478.45C86.95 478.814 86.664 479.1 86.3 479.1ZM90.2 479.1C89.836 479.1 89.55 478.814 89.55 478.45C89.55 478.086 89.836 477.8 90.2 477.8C90.564 477.8 90.85 478.086 90.85 478.45C90.85 478.814 90.564 479.1 90.2 479.1ZM86.3 481.05C85.936 481.05 85.65 480.764 85.65 480.4C85.65 480.036 85.936 479.75 86.3 479.75C86.664 479.75 86.95 480.036 86.95 480.4C86.95 480.764 86.664 481.05 86.3 481.05ZM90.2 481.05C89.836 481.05 89.55 480.764 89.55 480.4C89.55 480.036 89.836 479.75 90.2 479.75C90.564 479.75 90.85 480.036 90.85 480.4C90.85 480.764 90.564 481.05 90.2 481.05ZM87.6 483C87.236 483 86.95 482.714 86.95 482.35C86.95 481.986 87.236 481.7 87.6 481.7C87.964 481.7 88.25 481.986 88.25 482.35C88.25 482.714 87.964 483 87.6 483ZM88.9 483C88.536 483 88.25 482.714 88.25 482.35C88.25 481.986 88.536 481.7 88.9 481.7C89.264 481.7 89.55 481.986 89.55 482.35C89.55 482.714 89.264 483 88.9 483ZM96.7025 475.2C96.3385 475.2 96.0525 474.914 96.0525 474.55C96.0525 474.186 96.3385 473.9 96.7025 473.9C97.0665 473.9 97.3525 474.186 97.3525 474.55C97.3525 474.914 97.0665 475.2 96.7025 475.2ZM98.0025 475.2C97.6385 475.2 97.3525 474.914 97.3525 474.55C97.3525 474.186 97.6385 473.9 98.0025 473.9C98.3665 473.9 98.6525 474.186 98.6525 474.55C98.6525 474.914 98.3665 475.2 98.0025 475.2ZM99.3025 475.2C98.9385 475.2 98.6525 474.914 98.6525 474.55C98.6525 474.186 98.9385 473.9 99.3025 473.9C99.6665 473.9 99.9525 474.186 99.9525 474.55C99.9525 474.914 99.6665 475.2 99.3025 475.2ZM100.603 475.2C100.239 475.2 99.9525 474.914 99.9525 474.55C99.9525 474.186 100.239 473.9 100.603 473.9C100.967 473.9 101.253 474.186 101.253 474.55C101.253 474.914 100.967 475.2 100.603 475.2ZM95.4025 477.15C95.0385 477.15 94.7525 476.864 94.7525 476.5C94.7525 476.136 95.0385 475.85 95.4025 475.85C95.7665 475.85 96.0525 476.136 96.0525 476.5C96.0525 476.864 95.7665 477.15 95.4025 477.15ZM95.4025 479.1C95.0385 479.1 94.7525 478.814 94.7525 478.45C94.7525 478.086 95.0385 477.8 95.4025 477.8C95.7665 477.8 96.0525 478.086 96.0525 478.45C96.0525 478.814 95.7665 479.1 95.4025 479.1ZM98.0025 479.1C97.6385 479.1 97.3525 478.814 97.3525 478.45C97.3525 478.086 97.6385 477.8 98.0025 477.8C98.3665 477.8 98.6525 478.086 98.6525 478.45C98.6525 478.814 98.3665 479.1 98.0025 479.1ZM99.3025 479.1C98.9385 479.1 98.6525 478.814 98.6525 478.45C98.6525 478.086 98.9385 477.8 99.3025 477.8C99.6665 477.8 99.9525 478.086 99.9525 478.45C99.9525 478.814 99.6665 479.1 99.3025 479.1ZM100.603 479.1C100.239 479.1 99.9525 478.814 99.9525 478.45C99.9525 478.086 100.239 477.8 100.603 477.8C100.967 477.8 101.253 478.086 101.253 478.45C101.253 478.814 100.967 479.1 100.603 479.1ZM95.4025 481.05C95.0385 481.05 94.7525 480.764 94.7525 480.4C94.7525 480.036 95.0385 479.75 95.4025 479.75C95.7665 479.75 96.0525 480.036 96.0525 480.4C96.0525 480.764 95.7665 481.05 95.4025 481.05ZM100.603 481.05C100.239 481.05 99.9525 480.764 99.9525 480.4C99.9525 480.036 100.239 479.75 100.603 479.75C100.967 479.75 101.253 480.036 101.253 480.4C101.253 480.764 100.967 481.05 100.603 481.05ZM96.7025 483C96.3385 483 96.0525 482.714 96.0525 482.35C96.0525 481.986 96.3385 481.7 96.7025 481.7C97.0665 481.7 97.3525 481.986 97.3525 482.35C97.3525 482.714 97.0665 483 96.7025 483ZM98.0025 483C97.6385 483 97.3525 482.714 97.3525 482.35C97.3525 481.986 97.6385 481.7 98.0025 481.7C98.3665 481.7 98.6525 481.986 98.6525 482.35C98.6525 482.714 98.3665 483 98.0025 483ZM99.3025 483C98.9385 483 98.6525 482.714 98.6525 482.35C98.6525 481.986 98.9385 481.7 99.3025 481.7C99.6665 481.7 99.9525 481.986 99.9525 482.35C99.9525 482.714 99.6665 483 99.3025 483ZM103.197 475.2C102.833 475.2 102.547 474.914 102.547 474.55C102.547 474.186 102.833 473.9 103.197 473.9C103.561 473.9 103.847 474.186 103.847 474.55C103.847 474.914 103.561 475.2 103.197 475.2ZM103.197 477.15C102.833 477.15 102.547 476.864 102.547 476.5C102.547 476.136 102.833 475.85 103.197 475.85C103.561 475.85 103.847 476.136 103.847 476.5C103.847 476.864 103.561 477.15 103.197 477.15ZM103.197 479.1C102.833 479.1 102.547 478.814 102.547 478.45C102.547 478.086 102.833 477.8 103.197 477.8C103.561 477.8 103.847 478.086 103.847 478.45C103.847 478.814 103.561 479.1 103.197 479.1ZM103.197 481.05C102.833 481.05 102.547 480.764 102.547 480.4C102.547 480.036 102.833 479.75 103.197 479.75C103.561 479.75 103.847 480.036 103.847 480.4C103.847 480.764 103.561 481.05 103.197 481.05ZM103.197 483C102.833 483 102.547 482.714 102.547 482.35C102.547 481.986 102.833 481.7 103.197 481.7C103.561 481.7 103.847 481.986 103.847 482.35C103.847 482.714 103.561 483 103.197 483ZM105.8 477.15C105.436 477.15 105.15 476.864 105.15 476.5C105.15 476.136 105.436 475.85 105.8 475.85C106.164 475.85 106.45 476.136 106.45 476.5C106.45 476.864 106.164 477.15 105.8 477.15ZM109.7 477.15C109.336 477.15 109.05 476.864 109.05 476.5C109.05 476.136 109.336 475.85 109.7 475.85C110.064 475.85 110.35 476.136 110.35 476.5C110.35 476.864 110.064 477.15 109.7 477.15ZM105.8 479.1C105.436 479.1 105.15 478.814 105.15 478.45C105.15 478.086 105.436 477.8 105.8 477.8C106.164 477.8 106.45 478.086 106.45 478.45C106.45 478.814 106.164 479.1 105.8 479.1ZM109.7 479.1C109.336 479.1 109.05 478.814 109.05 478.45C109.05 478.086 109.336 477.8 109.7 477.8C110.064 477.8 110.35 478.086 110.35 478.45C110.35 478.814 110.064 479.1 109.7 479.1ZM107.1 481.05C106.736 481.05 106.45 480.764 106.45 480.4C106.45 480.036 106.736 479.75 107.1 479.75C107.464 479.75 107.75 480.036 107.75 480.4C107.75 480.764 107.464 481.05 107.1 481.05ZM108.4 481.05C108.036 481.05 107.75 480.764 107.75 480.4C107.75 480.036 108.036 479.75 108.4 479.75C108.764 479.75 109.05 480.036 109.05 480.4C109.05 480.764 108.764 481.05 108.4 481.05ZM109.7 481.05C109.336 481.05 109.05 480.764 109.05 480.4C109.05 480.036 109.336 479.75 109.7 479.75C110.064 479.75 110.35 480.036 110.35 480.4C110.35 480.764 110.064 481.05 109.7 481.05ZM109.7 483C109.336 483 109.05 482.714 109.05 482.35C109.05 481.986 109.336 481.7 109.7 481.7C110.064 481.7 110.35 481.986 110.35 482.35C110.35 482.714 110.064 483 109.7 483ZM107.1 484.95C106.736 484.95 106.45 484.664 106.45 484.3C106.45 483.936 106.736 483.65 107.1 483.65C107.464 483.65 107.75 483.936 107.75 484.3C107.75 484.664 107.464 484.95 107.1 484.95ZM108.4 484.95C108.036 484.95 107.75 484.664 107.75 484.3C107.75 483.936 108.036 483.65 108.4 483.65C108.764 483.65 109.05 483.936 109.05 484.3C109.05 484.664 108.764 484.95 108.4 484.95ZM112.3 477.15C111.936 477.15 111.65 476.864 111.65 476.5C111.65 476.136 111.936 475.85 112.3 475.85C112.664 475.85 112.95 476.136 112.95 476.5C112.95 476.864 112.664 477.15 112.3 477.15ZM113.6 477.15C113.236 477.15 112.95 476.864 112.95 476.5C112.95 476.136 113.236 475.85 113.6 475.85C113.964 475.85 114.25 476.136 114.25 476.5C114.25 476.864 113.964 477.15 113.6 477.15ZM114.9 477.15C114.536 477.15 114.25 476.864 114.25 476.5C114.25 476.136 114.536 475.85 114.9 475.85C115.264 475.85 115.55 476.136 115.55 476.5C115.55 476.864 115.264 477.15 114.9 477.15ZM112.3 479.1C111.936 479.1 111.65 478.814 111.65 478.45C111.65 478.086 111.936 477.8 112.3 477.8C112.664 477.8 112.95 478.086 112.95 478.45C112.95 478.814 112.664 479.1 112.3 479.1ZM116.2 479.1C115.836 479.1 115.55 478.814 115.55 478.45C115.55 478.086 115.836 477.8 116.2 477.8C116.564 477.8 116.85 478.086 116.85 478.45C116.85 478.814 116.564 479.1 116.2 479.1ZM112.3 481.05C111.936 481.05 111.65 480.764 111.65 480.4C111.65 480.036 111.936 479.75 112.3 479.75C112.664 479.75 112.95 480.036 112.95 480.4C112.95 480.764 112.664 481.05 112.3 481.05ZM116.2 481.05C115.836 481.05 115.55 480.764 115.55 480.4C115.55 480.036 115.836 479.75 116.2 479.75C116.564 479.75 116.85 480.036 116.85 480.4C116.85 480.764 116.564 481.05 116.2 481.05ZM112.3 483C111.936 483 111.65 482.714 111.65 482.35C111.65 481.986 111.936 481.7 112.3 481.7C112.664 481.7 112.95 481.986 112.95 482.35C112.95 482.714 112.664 483 112.3 483ZM113.6 483C113.236 483 112.95 482.714 112.95 482.35C112.95 481.986 113.236 481.7 113.6 481.7C113.964 481.7 114.25 481.986 114.25 482.35C114.25 482.714 113.964 483 113.6 483ZM114.9 483C114.536 483 114.25 482.714 114.25 482.35C114.25 481.986 114.536 481.7 114.9 481.7C115.264 481.7 115.55 481.986 115.55 482.35C115.55 482.714 115.264 483 114.9 483ZM112.3 484.95C111.936 484.95 111.65 484.664 111.65 484.3C111.65 483.936 111.936 483.65 112.3 483.65C112.664 483.65 112.95 483.936 112.95 484.3C112.95 484.664 112.664 484.95 112.3 484.95ZM118.8 475.2C118.436 475.2 118.15 474.914 118.15 474.55C118.15 474.186 118.436 473.9 118.8 473.9C119.164 473.9 119.45 474.186 119.45 474.55C119.45 474.914 119.164 475.2 118.8 475.2ZM118.8 477.15C118.436 477.15 118.15 476.864 118.15 476.5C118.15 476.136 118.436 475.85 118.8 475.85C119.164 475.85 119.45 476.136 119.45 476.5C119.45 476.864 119.164 477.15 118.8 477.15ZM121.4 477.15C121.036 477.15 120.75 476.864 120.75 476.5C120.75 476.136 121.036 475.85 121.4 475.85C121.764 475.85 122.05 476.136 122.05 476.5C122.05 476.864 121.764 477.15 121.4 477.15ZM118.8 479.1C118.436 479.1 118.15 478.814 118.15 478.45C118.15 478.086 118.436 477.8 118.8 477.8C119.164 477.8 119.45 478.086 119.45 478.45C119.45 478.814 119.164 479.1 118.8 479.1ZM120.1 479.1C119.736 479.1 119.45 478.814 119.45 478.45C119.45 478.086 119.736 477.8 120.1 477.8C120.464 477.8 120.75 478.086 120.75 478.45C120.75 478.814 120.464 479.1 120.1 479.1ZM122.7 479.1C122.336 479.1 122.05 478.814 122.05 478.45C122.05 478.086 122.336 477.8 122.7 477.8C123.064 477.8 123.35 478.086 123.35 478.45C123.35 478.814 123.064 479.1 122.7 479.1ZM118.8 481.05C118.436 481.05 118.15 480.764 118.15 480.4C118.15 480.036 118.436 479.75 118.8 479.75C119.164 479.75 119.45 480.036 119.45 480.4C119.45 480.764 119.164 481.05 118.8 481.05ZM122.7 481.05C122.336 481.05 122.05 480.764 122.05 480.4C122.05 480.036 122.336 479.75 122.7 479.75C123.064 479.75 123.35 480.036 123.35 480.4C123.35 480.764 123.064 481.05 122.7 481.05ZM118.8 483C118.436 483 118.15 482.714 118.15 482.35C118.15 481.986 118.436 481.7 118.8 481.7C119.164 481.7 119.45 481.986 119.45 482.35C119.45 482.714 119.164 483 118.8 483ZM122.7 483C122.336 483 122.05 482.714 122.05 482.35C122.05 481.986 122.336 481.7 122.7 481.7C123.064 481.7 123.35 481.986 123.35 482.35C123.35 482.714 123.064 483 122.7 483ZM127.903 475.2C127.539 475.2 127.253 474.914 127.253 474.55C127.253 474.186 127.539 473.9 127.903 473.9C128.267 473.9 128.553 474.186 128.553 474.55C128.553 474.914 128.267 475.2 127.903 475.2ZM133.103 475.2C132.739 475.2 132.453 474.914 132.453 474.55C132.453 474.186 132.739 473.9 133.103 473.9C133.467 473.9 133.753 474.186 133.753 474.55C133.753 474.914 133.467 475.2 133.103 475.2ZM127.903 477.15C127.539 477.15 127.253 476.864 127.253 476.5C127.253 476.136 127.539 475.85 127.903 475.85C128.267 475.85 128.553 476.136 128.553 476.5C128.553 476.864 128.267 477.15 127.903 477.15ZM129.203 477.15C128.839 477.15 128.553 476.864 128.553 476.5C128.553 476.136 128.839 475.85 129.203 475.85C129.567 475.85 129.853 476.136 129.853 476.5C129.853 476.864 129.567 477.15 129.203 477.15ZM131.803 477.15C131.439 477.15 131.153 476.864 131.153 476.5C131.153 476.136 131.439 475.85 131.803 475.85C132.167 475.85 132.453 476.136 132.453 476.5C132.453 476.864 132.167 477.15 131.803 477.15ZM133.103 477.15C132.739 477.15 132.453 476.864 132.453 476.5C132.453 476.136 132.739 475.85 133.103 475.85C133.467 475.85 133.753 476.136 133.753 476.5C133.753 476.864 133.467 477.15 133.103 477.15ZM127.903 479.1C127.539 479.1 127.253 478.814 127.253 478.45C127.253 478.086 127.539 477.8 127.903 477.8C128.267 477.8 128.553 478.086 128.553 478.45C128.553 478.814 128.267 479.1 127.903 479.1ZM130.503 479.1C130.139 479.1 129.853 478.814 129.853 478.45C129.853 478.086 130.139 477.8 130.503 477.8C130.867 477.8 131.153 478.086 131.153 478.45C131.153 478.814 130.867 479.1 130.503 479.1ZM133.103 479.1C132.739 479.1 132.453 478.814 132.453 478.45C132.453 478.086 132.739 477.8 133.103 477.8C133.467 477.8 133.753 478.086 133.753 478.45C133.753 478.814 133.467 479.1 133.103 479.1ZM127.903 481.05C127.539 481.05 127.253 480.764 127.253 480.4C127.253 480.036 127.539 479.75 127.903 479.75C128.267 479.75 128.553 480.036 128.553 480.4C128.553 480.764 128.267 481.05 127.903 481.05ZM133.103 481.05C132.739 481.05 132.453 480.764 132.453 480.4C132.453 480.036 132.739 479.75 133.103 479.75C133.467 479.75 133.753 480.036 133.753 480.4C133.753 480.764 133.467 481.05 133.103 481.05ZM127.903 483C127.539 483 127.253 482.714 127.253 482.35C127.253 481.986 127.539 481.7 127.903 481.7C128.267 481.7 128.553 481.986 128.553 482.35C128.553 482.714 128.267 483 127.903 483ZM133.103 483C132.739 483 132.453 482.714 132.453 482.35C132.453 481.986 132.739 481.7 133.103 481.7C133.467 481.7 133.753 481.986 133.753 482.35C133.753 482.714 133.467 483 133.103 483ZM135.697 477.15C135.333 477.15 135.047 476.864 135.047 476.5C135.047 476.136 135.333 475.85 135.697 475.85C136.061 475.85 136.347 476.136 136.347 476.5C136.347 476.864 136.061 477.15 135.697 477.15ZM136.997 477.15C136.633 477.15 136.347 476.864 136.347 476.5C136.347 476.136 136.633 475.85 136.997 475.85C137.361 475.85 137.647 476.136 137.647 476.5C137.647 476.864 137.361 477.15 136.997 477.15ZM138.297 477.15C137.933 477.15 137.647 476.864 137.647 476.5C137.647 476.136 137.933 475.85 138.297 475.85C138.661 475.85 138.947 476.136 138.947 476.5C138.947 476.864 138.661 477.15 138.297 477.15ZM136.997 479.1C136.633 479.1 136.347 478.814 136.347 478.45C136.347 478.086 136.633 477.8 136.997 477.8C137.361 477.8 137.647 478.086 137.647 478.45C137.647 478.814 137.361 479.1 136.997 479.1ZM138.297 479.1C137.933 479.1 137.647 478.814 137.647 478.45C137.647 478.086 137.933 477.8 138.297 477.8C138.661 477.8 138.947 478.086 138.947 478.45C138.947 478.814 138.661 479.1 138.297 479.1ZM139.597 479.1C139.233 479.1 138.947 478.814 138.947 478.45C138.947 478.086 139.233 477.8 139.597 477.8C139.961 477.8 140.247 478.086 140.247 478.45C140.247 478.814 139.961 479.1 139.597 479.1ZM135.697 481.05C135.333 481.05 135.047 480.764 135.047 480.4C135.047 480.036 135.333 479.75 135.697 479.75C136.061 479.75 136.347 480.036 136.347 480.4C136.347 480.764 136.061 481.05 135.697 481.05ZM139.597 481.05C139.233 481.05 138.947 480.764 138.947 480.4C138.947 480.036 139.233 479.75 139.597 479.75C139.961 479.75 140.247 480.036 140.247 480.4C140.247 480.764 139.961 481.05 139.597 481.05ZM136.997 483C136.633 483 136.347 482.714 136.347 482.35C136.347 481.986 136.633 481.7 136.997 481.7C137.361 481.7 137.647 481.986 137.647 482.35C137.647 482.714 137.361 483 136.997 483ZM138.297 483C137.933 483 137.647 482.714 137.647 482.35C137.647 481.986 137.933 481.7 138.297 481.7C138.661 481.7 138.947 481.986 138.947 482.35C138.947 482.714 138.661 483 138.297 483ZM139.597 483C139.233 483 138.947 482.714 138.947 482.35C138.947 481.986 139.233 481.7 139.597 481.7C139.961 481.7 140.247 481.986 140.247 482.35C140.247 482.714 139.961 483 139.597 483ZM143.497 475.2C143.133 475.2 142.847 474.914 142.847 474.55C142.847 474.186 143.133 473.9 143.497 473.9C143.861 473.9 144.147 474.186 144.147 474.55C144.147 474.914 143.861 475.2 143.497 475.2ZM142.197 477.15C141.833 477.15 141.547 476.864 141.547 476.5C141.547 476.136 141.833 475.85 142.197 475.85C142.561 475.85 142.847 476.136 142.847 476.5C142.847 476.864 142.561 477.15 142.197 477.15ZM143.497 477.15C143.133 477.15 142.847 476.864 142.847 476.5C142.847 476.136 143.133 475.85 143.497 475.85C143.861 475.85 144.147 476.136 144.147 476.5C144.147 476.864 143.861 477.15 143.497 477.15ZM144.797 477.15C144.433 477.15 144.147 476.864 144.147 476.5C144.147 476.136 144.433 475.85 144.797 475.85C145.161 475.85 145.447 476.136 145.447 476.5C145.447 476.864 145.161 477.15 144.797 477.15ZM143.497 479.1C143.133 479.1 142.847 478.814 142.847 478.45C142.847 478.086 143.133 477.8 143.497 477.8C143.861 477.8 144.147 478.086 144.147 478.45C144.147 478.814 143.861 479.1 143.497 479.1ZM143.497 481.05C143.133 481.05 142.847 480.764 142.847 480.4C142.847 480.036 143.133 479.75 143.497 479.75C143.861 479.75 144.147 480.036 144.147 480.4C144.147 480.764 143.861 481.05 143.497 481.05ZM144.797 483C144.433 483 144.147 482.714 144.147 482.35C144.147 481.986 144.433 481.7 144.797 481.7C145.161 481.7 145.447 481.986 145.447 482.35C145.447 482.714 145.161 483 144.797 483ZM146.097 483C145.733 483 145.447 482.714 145.447 482.35C145.447 481.986 145.733 481.7 146.097 481.7C146.461 481.7 146.747 481.986 146.747 482.35C146.747 482.714 146.461 483 146.097 483ZM148.697 477.15C148.333 477.15 148.047 476.864 148.047 476.5C148.047 476.136 148.333 475.85 148.697 475.85C149.061 475.85 149.347 476.136 149.347 476.5C149.347 476.864 149.061 477.15 148.697 477.15ZM151.297 477.15C150.933 477.15 150.647 476.864 150.647 476.5C150.647 476.136 150.933 475.85 151.297 475.85C151.661 475.85 151.947 476.136 151.947 476.5C151.947 476.864 151.661 477.15 151.297 477.15ZM152.597 477.15C152.233 477.15 151.947 476.864 151.947 476.5C151.947 476.136 152.233 475.85 152.597 475.85C152.961 475.85 153.247 476.136 153.247 476.5C153.247 476.864 152.961 477.15 152.597 477.15ZM148.697 479.1C148.333 479.1 148.047 478.814 148.047 478.45C148.047 478.086 148.333 477.8 148.697 477.8C149.061 477.8 149.347 478.086 149.347 478.45C149.347 478.814 149.061 479.1 148.697 479.1ZM149.997 479.1C149.633 479.1 149.347 478.814 149.347 478.45C149.347 478.086 149.633 477.8 149.997 477.8C150.361 477.8 150.647 478.086 150.647 478.45C150.647 478.814 150.361 479.1 149.997 479.1ZM148.697 481.05C148.333 481.05 148.047 480.764 148.047 480.4C148.047 480.036 148.333 479.75 148.697 479.75C149.061 479.75 149.347 480.036 149.347 480.4C149.347 480.764 149.061 481.05 148.697 481.05ZM148.697 483C148.333 483 148.047 482.714 148.047 482.35C148.047 481.986 148.333 481.7 148.697 481.7C149.061 481.7 149.347 481.986 149.347 482.35C149.347 482.714 149.061 483 148.697 483ZM156.497 475.2C156.133 475.2 155.847 474.914 155.847 474.55C155.847 474.186 156.133 473.9 156.497 473.9C156.861 473.9 157.147 474.186 157.147 474.55C157.147 474.914 156.861 475.2 156.497 475.2ZM155.197 477.15C154.833 477.15 154.547 476.864 154.547 476.5C154.547 476.136 154.833 475.85 155.197 475.85C155.561 475.85 155.847 476.136 155.847 476.5C155.847 476.864 155.561 477.15 155.197 477.15ZM156.497 477.15C156.133 477.15 155.847 476.864 155.847 476.5C155.847 476.136 156.133 475.85 156.497 475.85C156.861 475.85 157.147 476.136 157.147 476.5C157.147 476.864 156.861 477.15 156.497 477.15ZM156.497 479.1C156.133 479.1 155.847 478.814 155.847 478.45C155.847 478.086 156.133 477.8 156.497 477.8C156.861 477.8 157.147 478.086 157.147 478.45C157.147 478.814 156.861 479.1 156.497 479.1ZM156.497 481.05C156.133 481.05 155.847 480.764 155.847 480.4C155.847 480.036 156.133 479.75 156.497 479.75C156.861 479.75 157.147 480.036 157.147 480.4C157.147 480.764 156.861 481.05 156.497 481.05ZM156.497 483C156.133 483 155.847 482.714 155.847 482.35C155.847 481.986 156.133 481.7 156.497 481.7C156.861 481.7 157.147 481.986 157.147 482.35C157.147 482.714 156.861 483 156.497 483ZM157.797 483C157.433 483 157.147 482.714 157.147 482.35C157.147 481.986 157.433 481.7 157.797 481.7C158.161 481.7 158.447 481.986 158.447 482.35C158.447 482.714 158.161 483 157.797 483ZM160.403 477.15C160.039 477.15 159.753 476.864 159.753 476.5C159.753 476.136 160.039 475.85 160.403 475.85C160.767 475.85 161.053 476.136 161.053 476.5C161.053 476.864 160.767 477.15 160.403 477.15ZM164.303 477.15C163.939 477.15 163.653 476.864 163.653 476.5C163.653 476.136 163.939 475.85 164.303 475.85C164.667 475.85 164.953 476.136 164.953 476.5C164.953 476.864 164.667 477.15 164.303 477.15ZM161.703 479.1C161.339 479.1 161.053 478.814 161.053 478.45C161.053 478.086 161.339 477.8 161.703 477.8C162.067 477.8 162.353 478.086 162.353 478.45C162.353 478.814 162.067 479.1 161.703 479.1ZM163.003 479.1C162.639 479.1 162.353 478.814 162.353 478.45C162.353 478.086 162.639 477.8 163.003 477.8C163.367 477.8 163.653 478.086 163.653 478.45C163.653 478.814 163.367 479.1 163.003 479.1ZM161.703 481.05C161.339 481.05 161.053 480.764 161.053 480.4C161.053 480.036 161.339 479.75 161.703 479.75C162.067 479.75 162.353 480.036 162.353 480.4C162.353 480.764 162.067 481.05 161.703 481.05ZM163.003 481.05C162.639 481.05 162.353 480.764 162.353 480.4C162.353 480.036 162.639 479.75 163.003 479.75C163.367 479.75 163.653 480.036 163.653 480.4C163.653 480.764 163.367 481.05 163.003 481.05ZM160.403 483C160.039 483 159.753 482.714 159.753 482.35C159.753 481.986 160.039 481.7 160.403 481.7C160.767 481.7 161.053 481.986 161.053 482.35C161.053 482.714 160.767 483 160.403 483ZM164.303 483C163.939 483 163.653 482.714 163.653 482.35C163.653 481.986 163.939 481.7 164.303 481.7C164.667 481.7 164.953 481.986 164.953 482.35C164.953 482.714 164.667 483 164.303 483ZM169.505 475.2C169.141 475.2 168.855 474.914 168.855 474.55C168.855 474.186 169.141 473.9 169.505 473.9C169.869 473.9 170.155 474.186 170.155 474.55C170.155 474.914 169.869 475.2 169.505 475.2ZM169.505 477.15C169.141 477.15 168.855 476.864 168.855 476.5C168.855 476.136 169.141 475.85 169.505 475.85C169.869 475.85 170.155 476.136 170.155 476.5C170.155 476.864 169.869 477.15 169.505 477.15ZM169.505 479.1C169.141 479.1 168.855 478.814 168.855 478.45C168.855 478.086 169.141 477.8 169.505 477.8C169.869 477.8 170.155 478.086 170.155 478.45C170.155 478.814 169.869 479.1 169.505 479.1ZM169.505 481.05C169.141 481.05 168.855 480.764 168.855 480.4C168.855 480.036 169.141 479.75 169.505 479.75C169.869 479.75 170.155 480.036 170.155 480.4C170.155 480.764 169.869 481.05 169.505 481.05ZM169.505 483C169.141 483 168.855 482.714 168.855 482.35C168.855 481.986 169.141 481.7 169.505 481.7C169.869 481.7 170.155 481.986 170.155 482.35C170.155 482.714 169.869 483 169.505 483ZM170.805 483C170.441 483 170.155 482.714 170.155 482.35C170.155 481.986 170.441 481.7 170.805 481.7C171.169 481.7 171.455 481.986 171.455 482.35C171.455 482.714 171.169 483 170.805 483ZM172.105 483C171.741 483 171.455 482.714 171.455 482.35C171.455 481.986 171.741 481.7 172.105 481.7C172.469 481.7 172.755 481.986 172.755 482.35C172.755 482.714 172.469 483 172.105 483ZM173.405 483C173.041 483 172.755 482.714 172.755 482.35C172.755 481.986 173.041 481.7 173.405 481.7C173.769 481.7 174.055 481.986 174.055 482.35C174.055 482.714 173.769 483 173.405 483ZM174.705 483C174.341 483 174.055 482.714 174.055 482.35C174.055 481.986 174.341 481.7 174.705 481.7C175.069 481.7 175.355 481.986 175.355 482.35C175.355 482.714 175.069 483 174.705 483ZM177.3 475.2C176.936 475.2 176.65 474.914 176.65 474.55C176.65 474.186 176.936 473.9 177.3 473.9C177.664 473.9 177.95 474.186 177.95 474.55C177.95 474.914 177.664 475.2 177.3 475.2ZM178.6 475.2C178.236 475.2 177.95 474.914 177.95 474.55C177.95 474.186 178.236 473.9 178.6 473.9C178.964 473.9 179.25 474.186 179.25 474.55C179.25 474.914 178.964 475.2 178.6 475.2ZM179.9 475.2C179.536 475.2 179.25 474.914 179.25 474.55C179.25 474.186 179.536 473.9 179.9 473.9C180.264 473.9 180.55 474.186 180.55 474.55C180.55 474.914 180.264 475.2 179.9 475.2ZM181.2 475.2C180.836 475.2 180.55 474.914 180.55 474.55C180.55 474.186 180.836 473.9 181.2 473.9C181.564 473.9 181.85 474.186 181.85 474.55C181.85 474.914 181.564 475.2 181.2 475.2ZM182.5 475.2C182.136 475.2 181.85 474.914 181.85 474.55C181.85 474.186 182.136 473.9 182.5 473.9C182.864 473.9 183.15 474.186 183.15 474.55C183.15 474.914 182.864 475.2 182.5 475.2ZM177.3 477.15C176.936 477.15 176.65 476.864 176.65 476.5C176.65 476.136 176.936 475.85 177.3 475.85C177.664 475.85 177.95 476.136 177.95 476.5C177.95 476.864 177.664 477.15 177.3 477.15ZM177.3 479.1C176.936 479.1 176.65 478.814 176.65 478.45C176.65 478.086 176.936 477.8 177.3 477.8C177.664 477.8 177.95 478.086 177.95 478.45C177.95 478.814 177.664 479.1 177.3 479.1ZM178.6 479.1C178.236 479.1 177.95 478.814 177.95 478.45C177.95 478.086 178.236 477.8 178.6 477.8C178.964 477.8 179.25 478.086 179.25 478.45C179.25 478.814 178.964 479.1 178.6 479.1ZM179.9 479.1C179.536 479.1 179.25 478.814 179.25 478.45C179.25 478.086 179.536 477.8 179.9 477.8C180.264 477.8 180.55 478.086 180.55 478.45C180.55 478.814 180.264 479.1 179.9 479.1ZM181.2 479.1C180.836 479.1 180.55 478.814 180.55 478.45C180.55 478.086 180.836 477.8 181.2 477.8C181.564 477.8 181.85 478.086 181.85 478.45C181.85 478.814 181.564 479.1 181.2 479.1ZM177.3 481.05C176.936 481.05 176.65 480.764 176.65 480.4C176.65 480.036 176.936 479.75 177.3 479.75C177.664 479.75 177.95 480.036 177.95 480.4C177.95 480.764 177.664 481.05 177.3 481.05ZM177.3 483C176.936 483 176.65 482.714 176.65 482.35C176.65 481.986 176.936 481.7 177.3 481.7C177.664 481.7 177.95 481.986 177.95 482.35C177.95 482.714 177.664 483 177.3 483ZM178.6 483C178.236 483 177.95 482.714 177.95 482.35C177.95 481.986 178.236 481.7 178.6 481.7C178.964 481.7 179.25 481.986 179.25 482.35C179.25 482.714 178.964 483 178.6 483ZM179.9 483C179.536 483 179.25 482.714 179.25 482.35C179.25 481.986 179.536 481.7 179.9 481.7C180.264 481.7 180.55 481.986 180.55 482.35C180.55 482.714 180.264 483 179.9 483ZM181.2 483C180.836 483 180.55 482.714 180.55 482.35C180.55 481.986 180.836 481.7 181.2 481.7C181.564 481.7 181.85 481.986 181.85 482.35C181.85 482.714 181.564 483 181.2 483ZM182.5 483C182.136 483 181.85 482.714 181.85 482.35C181.85 481.986 182.136 481.7 182.5 481.7C182.864 481.7 183.15 481.986 183.15 482.35C183.15 482.714 182.864 483 182.5 483ZM185.095 475.2C184.731 475.2 184.445 474.914 184.445 474.55C184.445 474.186 184.731 473.9 185.095 473.9C185.459 473.9 185.745 474.186 185.745 474.55C185.745 474.914 185.459 475.2 185.095 475.2ZM186.395 475.2C186.031 475.2 185.745 474.914 185.745 474.55C185.745 474.186 186.031 473.9 186.395 473.9C186.759 473.9 187.045 474.186 187.045 474.55C187.045 474.914 186.759 475.2 186.395 475.2ZM187.695 475.2C187.331 475.2 187.045 474.914 187.045 474.55C187.045 474.186 187.331 473.9 187.695 473.9C188.059 473.9 188.345 474.186 188.345 474.55C188.345 474.914 188.059 475.2 187.695 475.2ZM188.995 475.2C188.631 475.2 188.345 474.914 188.345 474.55C188.345 474.186 188.631 473.9 188.995 473.9C189.359 473.9 189.645 474.186 189.645 474.55C189.645 474.914 189.359 475.2 188.995 475.2ZM185.095 477.15C184.731 477.15 184.445 476.864 184.445 476.5C184.445 476.136 184.731 475.85 185.095 475.85C185.459 475.85 185.745 476.136 185.745 476.5C185.745 476.864 185.459 477.15 185.095 477.15ZM190.295 477.15C189.931 477.15 189.645 476.864 189.645 476.5C189.645 476.136 189.931 475.85 190.295 475.85C190.659 475.85 190.945 476.136 190.945 476.5C190.945 476.864 190.659 477.15 190.295 477.15ZM185.095 479.1C184.731 479.1 184.445 478.814 184.445 478.45C184.445 478.086 184.731 477.8 185.095 477.8C185.459 477.8 185.745 478.086 185.745 478.45C185.745 478.814 185.459 479.1 185.095 479.1ZM190.295 479.1C189.931 479.1 189.645 478.814 189.645 478.45C189.645 478.086 189.931 477.8 190.295 477.8C190.659 477.8 190.945 478.086 190.945 478.45C190.945 478.814 190.659 479.1 190.295 479.1ZM185.095 481.05C184.731 481.05 184.445 480.764 184.445 480.4C184.445 480.036 184.731 479.75 185.095 479.75C185.459 479.75 185.745 480.036 185.745 480.4C185.745 480.764 185.459 481.05 185.095 481.05ZM190.295 481.05C189.931 481.05 189.645 480.764 189.645 480.4C189.645 480.036 189.931 479.75 190.295 479.75C190.659 479.75 190.945 480.036 190.945 480.4C190.945 480.764 190.659 481.05 190.295 481.05ZM185.095 483C184.731 483 184.445 482.714 184.445 482.35C184.445 481.986 184.731 481.7 185.095 481.7C185.459 481.7 185.745 481.986 185.745 482.35C185.745 482.714 185.459 483 185.095 483ZM186.395 483C186.031 483 185.745 482.714 185.745 482.35C185.745 481.986 186.031 481.7 186.395 481.7C186.759 481.7 187.045 481.986 187.045 482.35C187.045 482.714 186.759 483 186.395 483ZM187.695 483C187.331 483 187.045 482.714 187.045 482.35C187.045 481.986 187.331 481.7 187.695 481.7C188.059 481.7 188.345 481.986 188.345 482.35C188.345 482.714 188.059 483 187.695 483ZM188.995 483C188.631 483 188.345 482.714 188.345 482.35C188.345 481.986 188.631 481.7 188.995 481.7C189.359 481.7 189.645 481.986 189.645 482.35C189.645 482.714 189.359 483 188.995 483ZM195.492 477.15C195.128 477.15 194.842 476.864 194.842 476.5C194.842 476.136 195.128 475.85 195.492 475.85C195.856 475.85 196.142 476.136 196.142 476.5C196.142 476.864 195.856 477.15 195.492 477.15ZM196.792 477.15C196.428 477.15 196.142 476.864 196.142 476.5C196.142 476.136 196.428 475.85 196.792 475.85C197.156 475.85 197.442 476.136 197.442 476.5C197.442 476.864 197.156 477.15 196.792 477.15ZM198.092 477.15C197.728 477.15 197.442 476.864 197.442 476.5C197.442 476.136 197.728 475.85 198.092 475.85C198.456 475.85 198.742 476.136 198.742 476.5C198.742 476.864 198.456 477.15 198.092 477.15ZM196.792 479.1C196.428 479.1 196.142 478.814 196.142 478.45C196.142 478.086 196.428 477.8 196.792 477.8C197.156 477.8 197.442 478.086 197.442 478.45C197.442 478.814 197.156 479.1 196.792 479.1ZM198.092 479.1C197.728 479.1 197.442 478.814 197.442 478.45C197.442 478.086 197.728 477.8 198.092 477.8C198.456 477.8 198.742 478.086 198.742 478.45C198.742 478.814 198.456 479.1 198.092 479.1ZM199.392 479.1C199.028 479.1 198.742 478.814 198.742 478.45C198.742 478.086 199.028 477.8 199.392 477.8C199.756 477.8 200.042 478.086 200.042 478.45C200.042 478.814 199.756 479.1 199.392 479.1ZM195.492 481.05C195.128 481.05 194.842 480.764 194.842 480.4C194.842 480.036 195.128 479.75 195.492 479.75C195.856 479.75 196.142 480.036 196.142 480.4C196.142 480.764 195.856 481.05 195.492 481.05ZM199.392 481.05C199.028 481.05 198.742 480.764 198.742 480.4C198.742 480.036 199.028 479.75 199.392 479.75C199.756 479.75 200.042 480.036 200.042 480.4C200.042 480.764 199.756 481.05 199.392 481.05ZM196.792 483C196.428 483 196.142 482.714 196.142 482.35C196.142 481.986 196.428 481.7 196.792 481.7C197.156 481.7 197.442 481.986 197.442 482.35C197.442 482.714 197.156 483 196.792 483ZM198.092 483C197.728 483 197.442 482.714 197.442 482.35C197.442 481.986 197.728 481.7 198.092 481.7C198.456 481.7 198.742 481.986 198.742 482.35C198.742 482.714 198.456 483 198.092 483ZM199.392 483C199.028 483 198.742 482.714 198.742 482.35C198.742 481.986 199.028 481.7 199.392 481.7C199.756 481.7 200.042 481.986 200.042 482.35C200.042 482.714 199.756 483 199.392 483ZM201.992 475.2C201.628 475.2 201.342 474.914 201.342 474.55C201.342 474.186 201.628 473.9 201.992 473.9C202.356 473.9 202.642 474.186 202.642 474.55C202.642 474.914 202.356 475.2 201.992 475.2ZM201.992 477.15C201.628 477.15 201.342 476.864 201.342 476.5C201.342 476.136 201.628 475.85 201.992 475.85C202.356 475.85 202.642 476.136 202.642 476.5C202.642 476.864 202.356 477.15 201.992 477.15ZM201.992 479.1C201.628 479.1 201.342 478.814 201.342 478.45C201.342 478.086 201.628 477.8 201.992 477.8C202.356 477.8 202.642 478.086 202.642 478.45C202.642 478.814 202.356 479.1 201.992 479.1ZM201.992 481.05C201.628 481.05 201.342 480.764 201.342 480.4C201.342 480.036 201.628 479.75 201.992 479.75C202.356 479.75 202.642 480.036 202.642 480.4C202.642 480.764 202.356 481.05 201.992 481.05ZM201.992 483C201.628 483 201.342 482.714 201.342 482.35C201.342 481.986 201.628 481.7 201.992 481.7C202.356 481.7 202.642 481.986 202.642 482.35C202.642 482.714 202.356 483 201.992 483ZM204.595 475.2C204.231 475.2 203.945 474.914 203.945 474.55C203.945 474.186 204.231 473.9 204.595 473.9C204.959 473.9 205.245 474.186 205.245 474.55C205.245 474.914 204.959 475.2 204.595 475.2ZM204.595 477.15C204.231 477.15 203.945 476.864 203.945 476.5C203.945 476.136 204.231 475.85 204.595 475.85C204.959 475.85 205.245 476.136 205.245 476.5C205.245 476.864 204.959 477.15 204.595 477.15ZM204.595 479.1C204.231 479.1 203.945 478.814 203.945 478.45C203.945 478.086 204.231 477.8 204.595 477.8C204.959 477.8 205.245 478.086 205.245 478.45C205.245 478.814 204.959 479.1 204.595 479.1ZM204.595 481.05C204.231 481.05 203.945 480.764 203.945 480.4C203.945 480.036 204.231 479.75 204.595 479.75C204.959 479.75 205.245 480.036 205.245 480.4C205.245 480.764 204.959 481.05 204.595 481.05ZM204.595 483C204.231 483 203.945 482.714 203.945 482.35C203.945 481.986 204.231 481.7 204.595 481.7C204.959 481.7 205.245 481.986 205.245 482.35C205.245 482.714 204.959 483 204.595 483ZM208.497 477.15C208.133 477.15 207.847 476.864 207.847 476.5C207.847 476.136 208.133 475.85 208.497 475.85C208.861 475.85 209.147 476.136 209.147 476.5C209.147 476.864 208.861 477.15 208.497 477.15ZM209.797 477.15C209.433 477.15 209.147 476.864 209.147 476.5C209.147 476.136 209.433 475.85 209.797 475.85C210.161 475.85 210.447 476.136 210.447 476.5C210.447 476.864 210.161 477.15 209.797 477.15ZM207.197 479.1C206.833 479.1 206.547 478.814 206.547 478.45C206.547 478.086 206.833 477.8 207.197 477.8C207.561 477.8 207.847 478.086 207.847 478.45C207.847 478.814 207.561 479.1 207.197 479.1ZM211.097 479.1C210.733 479.1 210.447 478.814 210.447 478.45C210.447 478.086 210.733 477.8 211.097 477.8C211.461 477.8 211.747 478.086 211.747 478.45C211.747 478.814 211.461 479.1 211.097 479.1ZM207.197 481.05C206.833 481.05 206.547 480.764 206.547 480.4C206.547 480.036 206.833 479.75 207.197 479.75C207.561 479.75 207.847 480.036 207.847 480.4C207.847 480.764 207.561 481.05 207.197 481.05ZM211.097 481.05C210.733 481.05 210.447 480.764 210.447 480.4C210.447 480.036 210.733 479.75 211.097 479.75C211.461 479.75 211.747 480.036 211.747 480.4C211.747 480.764 211.461 481.05 211.097 481.05ZM208.497 483C208.133 483 207.847 482.714 207.847 482.35C207.847 481.986 208.133 481.7 208.497 481.7C208.861 481.7 209.147 481.986 209.147 482.35C209.147 482.714 208.861 483 208.497 483ZM209.797 483C209.433 483 209.147 482.714 209.147 482.35C209.147 481.986 209.433 481.7 209.797 481.7C210.161 481.7 210.447 481.986 210.447 482.35C210.447 482.714 210.161 483 209.797 483ZM214.997 477.15C214.633 477.15 214.347 476.864 214.347 476.5C214.347 476.136 214.633 475.85 214.997 475.85C215.361 475.85 215.647 476.136 215.647 476.5C215.647 476.864 215.361 477.15 214.997 477.15ZM216.297 477.15C215.933 477.15 215.647 476.864 215.647 476.5C215.647 476.136 215.933 475.85 216.297 475.85C216.661 475.85 216.947 476.136 216.947 476.5C216.947 476.864 216.661 477.15 216.297 477.15ZM217.597 477.15C217.233 477.15 216.947 476.864 216.947 476.5C216.947 476.136 217.233 475.85 217.597 475.85C217.961 475.85 218.247 476.136 218.247 476.5C218.247 476.864 217.961 477.15 217.597 477.15ZM213.697 479.1C213.333 479.1 213.047 478.814 213.047 478.45C213.047 478.086 213.333 477.8 213.697 477.8C214.061 477.8 214.347 478.086 214.347 478.45C214.347 478.814 214.061 479.1 213.697 479.1ZM213.697 481.05C213.333 481.05 213.047 480.764 213.047 480.4C213.047 480.036 213.333 479.75 213.697 479.75C214.061 479.75 214.347 480.036 214.347 480.4C214.347 480.764 214.061 481.05 213.697 481.05ZM214.997 483C214.633 483 214.347 482.714 214.347 482.35C214.347 481.986 214.633 481.7 214.997 481.7C215.361 481.7 215.647 481.986 215.647 482.35C215.647 482.714 215.361 483 214.997 483ZM216.297 483C215.933 483 215.647 482.714 215.647 482.35C215.647 481.986 215.933 481.7 216.297 481.7C216.661 481.7 216.947 481.986 216.947 482.35C216.947 482.714 216.661 483 216.297 483ZM217.597 483C217.233 483 216.947 482.714 216.947 482.35C216.947 481.986 217.233 481.7 217.597 481.7C217.961 481.7 218.247 481.986 218.247 482.35C218.247 482.714 217.961 483 217.597 483ZM220.197 477.15C219.833 477.15 219.547 476.864 219.547 476.5C219.547 476.136 219.833 475.85 220.197 475.85C220.561 475.85 220.847 476.136 220.847 476.5C220.847 476.864 220.561 477.15 220.197 477.15ZM221.497 477.15C221.133 477.15 220.847 476.864 220.847 476.5C220.847 476.136 221.133 475.85 221.497 475.85C221.861 475.85 222.147 476.136 222.147 476.5C222.147 476.864 221.861 477.15 221.497 477.15ZM222.797 477.15C222.433 477.15 222.147 476.864 222.147 476.5C222.147 476.136 222.433 475.85 222.797 475.85C223.161 475.85 223.447 476.136 223.447 476.5C223.447 476.864 223.161 477.15 222.797 477.15ZM221.497 479.1C221.133 479.1 220.847 478.814 220.847 478.45C220.847 478.086 221.133 477.8 221.497 477.8C221.861 477.8 222.147 478.086 222.147 478.45C222.147 478.814 221.861 479.1 221.497 479.1ZM222.797 479.1C222.433 479.1 222.147 478.814 222.147 478.45C222.147 478.086 222.433 477.8 222.797 477.8C223.161 477.8 223.447 478.086 223.447 478.45C223.447 478.814 223.161 479.1 222.797 479.1ZM224.097 479.1C223.733 479.1 223.447 478.814 223.447 478.45C223.447 478.086 223.733 477.8 224.097 477.8C224.461 477.8 224.747 478.086 224.747 478.45C224.747 478.814 224.461 479.1 224.097 479.1ZM220.197 481.05C219.833 481.05 219.547 480.764 219.547 480.4C219.547 480.036 219.833 479.75 220.197 479.75C220.561 479.75 220.847 480.036 220.847 480.4C220.847 480.764 220.561 481.05 220.197 481.05ZM224.097 481.05C223.733 481.05 223.447 480.764 223.447 480.4C223.447 480.036 223.733 479.75 224.097 479.75C224.461 479.75 224.747 480.036 224.747 480.4C224.747 480.764 224.461 481.05 224.097 481.05ZM221.497 483C221.133 483 220.847 482.714 220.847 482.35C220.847 481.986 221.133 481.7 221.497 481.7C221.861 481.7 222.147 481.986 222.147 482.35C222.147 482.714 221.861 483 221.497 483ZM222.797 483C222.433 483 222.147 482.714 222.147 482.35C222.147 481.986 222.433 481.7 222.797 481.7C223.161 481.7 223.447 481.986 223.447 482.35C223.447 482.714 223.161 483 222.797 483ZM224.097 483C223.733 483 223.447 482.714 223.447 482.35C223.447 481.986 223.733 481.7 224.097 481.7C224.461 481.7 224.747 481.986 224.747 482.35C224.747 482.714 224.461 483 224.097 483ZM227.997 475.2C227.633 475.2 227.347 474.914 227.347 474.55C227.347 474.186 227.633 473.9 227.997 473.9C228.361 473.9 228.647 474.186 228.647 474.55C228.647 474.914 228.361 475.2 227.997 475.2ZM226.697 477.15C226.333 477.15 226.047 476.864 226.047 476.5C226.047 476.136 226.333 475.85 226.697 475.85C227.061 475.85 227.347 476.136 227.347 476.5C227.347 476.864 227.061 477.15 226.697 477.15ZM227.997 477.15C227.633 477.15 227.347 476.864 227.347 476.5C227.347 476.136 227.633 475.85 227.997 475.85C228.361 475.85 228.647 476.136 228.647 476.5C228.647 476.864 228.361 477.15 227.997 477.15ZM229.297 477.15C228.933 477.15 228.647 476.864 228.647 476.5C228.647 476.136 228.933 475.85 229.297 475.85C229.661 475.85 229.947 476.136 229.947 476.5C229.947 476.864 229.661 477.15 229.297 477.15ZM227.997 479.1C227.633 479.1 227.347 478.814 227.347 478.45C227.347 478.086 227.633 477.8 227.997 477.8C228.361 477.8 228.647 478.086 228.647 478.45C228.647 478.814 228.361 479.1 227.997 479.1ZM227.997 481.05C227.633 481.05 227.347 480.764 227.347 480.4C227.347 480.036 227.633 479.75 227.997 479.75C228.361 479.75 228.647 480.036 228.647 480.4C228.647 480.764 228.361 481.05 227.997 481.05ZM229.297 483C228.933 483 228.647 482.714 228.647 482.35C228.647 481.986 228.933 481.7 229.297 481.7C229.661 481.7 229.947 481.986 229.947 482.35C229.947 482.714 229.661 483 229.297 483ZM230.597 483C230.233 483 229.947 482.714 229.947 482.35C229.947 481.986 230.233 481.7 230.597 481.7C230.961 481.7 231.247 481.986 231.247 482.35C231.247 482.714 230.961 483 230.597 483ZM234.497 475.2C234.133 475.2 233.847 474.914 233.847 474.55C233.847 474.186 234.133 473.9 234.497 473.9C234.861 473.9 235.147 474.186 235.147 474.55C235.147 474.914 234.861 475.2 234.497 475.2ZM233.197 477.15C232.833 477.15 232.547 476.864 232.547 476.5C232.547 476.136 232.833 475.85 233.197 475.85C233.561 475.85 233.847 476.136 233.847 476.5C233.847 476.864 233.561 477.15 233.197 477.15ZM234.497 477.15C234.133 477.15 233.847 476.864 233.847 476.5C233.847 476.136 234.133 475.85 234.497 475.85C234.861 475.85 235.147 476.136 235.147 476.5C235.147 476.864 234.861 477.15 234.497 477.15ZM234.497 479.1C234.133 479.1 233.847 478.814 233.847 478.45C233.847 478.086 234.133 477.8 234.497 477.8C234.861 477.8 235.147 478.086 235.147 478.45C235.147 478.814 234.861 479.1 234.497 479.1ZM234.497 481.05C234.133 481.05 233.847 480.764 233.847 480.4C233.847 480.036 234.133 479.75 234.497 479.75C234.861 479.75 235.147 480.036 235.147 480.4C235.147 480.764 234.861 481.05 234.497 481.05ZM234.497 483C234.133 483 233.847 482.714 233.847 482.35C233.847 481.986 234.133 481.7 234.497 481.7C234.861 481.7 235.147 481.986 235.147 482.35C235.147 482.714 234.861 483 234.497 483ZM235.797 483C235.433 483 235.147 482.714 235.147 482.35C235.147 481.986 235.433 481.7 235.797 481.7C236.161 481.7 236.447 481.986 236.447 482.35C236.447 482.714 236.161 483 235.797 483ZM239.703 477.15C239.339 477.15 239.053 476.864 239.053 476.5C239.053 476.136 239.339 475.85 239.703 475.85C240.067 475.85 240.353 476.136 240.353 476.5C240.353 476.864 240.067 477.15 239.703 477.15ZM241.003 477.15C240.639 477.15 240.353 476.864 240.353 476.5C240.353 476.136 240.639 475.85 241.003 475.85C241.367 475.85 241.653 476.136 241.653 476.5C241.653 476.864 241.367 477.15 241.003 477.15ZM238.403 479.1C238.039 479.1 237.753 478.814 237.753 478.45C237.753 478.086 238.039 477.8 238.403 477.8C238.767 477.8 239.053 478.086 239.053 478.45C239.053 478.814 238.767 479.1 238.403 479.1ZM242.303 479.1C241.939 479.1 241.653 478.814 241.653 478.45C241.653 478.086 241.939 477.8 242.303 477.8C242.667 477.8 242.953 478.086 242.953 478.45C242.953 478.814 242.667 479.1 242.303 479.1ZM238.403 481.05C238.039 481.05 237.753 480.764 237.753 480.4C237.753 480.036 238.039 479.75 238.403 479.75C238.767 479.75 239.053 480.036 239.053 480.4C239.053 480.764 238.767 481.05 238.403 481.05ZM242.303 481.05C241.939 481.05 241.653 480.764 241.653 480.4C241.653 480.036 241.939 479.75 242.303 479.75C242.667 479.75 242.953 480.036 242.953 480.4C242.953 480.764 242.667 481.05 242.303 481.05ZM239.703 483C239.339 483 239.053 482.714 239.053 482.35C239.053 481.986 239.339 481.7 239.703 481.7C240.067 481.7 240.353 481.986 240.353 482.35C240.353 482.714 240.067 483 239.703 483ZM241.003 483C240.639 483 240.353 482.714 240.353 482.35C240.353 481.986 240.639 481.7 241.003 481.7C241.367 481.7 241.653 481.986 241.653 482.35C241.653 482.714 241.367 483 241.003 483ZM244.903 477.15C244.539 477.15 244.253 476.864 244.253 476.5C244.253 476.136 244.539 475.85 244.903 475.85C245.267 475.85 245.553 476.136 245.553 476.5C245.553 476.864 245.267 477.15 244.903 477.15ZM247.503 477.15C247.139 477.15 246.853 476.864 246.853 476.5C246.853 476.136 247.139 475.85 247.503 475.85C247.867 475.85 248.153 476.136 248.153 476.5C248.153 476.864 247.867 477.15 247.503 477.15ZM244.903 479.1C244.539 479.1 244.253 478.814 244.253 478.45C244.253 478.086 244.539 477.8 244.903 477.8C245.267 477.8 245.553 478.086 245.553 478.45C245.553 478.814 245.267 479.1 244.903 479.1ZM246.203 479.1C245.839 479.1 245.553 478.814 245.553 478.45C245.553 478.086 245.839 477.8 246.203 477.8C246.567 477.8 246.853 478.086 246.853 478.45C246.853 478.814 246.567 479.1 246.203 479.1ZM248.803 479.1C248.439 479.1 248.153 478.814 248.153 478.45C248.153 478.086 248.439 477.8 248.803 477.8C249.167 477.8 249.453 478.086 249.453 478.45C249.453 478.814 249.167 479.1 248.803 479.1ZM244.903 481.05C244.539 481.05 244.253 480.764 244.253 480.4C244.253 480.036 244.539 479.75 244.903 479.75C245.267 479.75 245.553 480.036 245.553 480.4C245.553 480.764 245.267 481.05 244.903 481.05ZM248.803 481.05C248.439 481.05 248.153 480.764 248.153 480.4C248.153 480.036 248.439 479.75 248.803 479.75C249.167 479.75 249.453 480.036 249.453 480.4C249.453 480.764 249.167 481.05 248.803 481.05ZM244.903 483C244.539 483 244.253 482.714 244.253 482.35C244.253 481.986 244.539 481.7 244.903 481.7C245.267 481.7 245.553 481.986 245.553 482.35C245.553 482.714 245.267 483 244.903 483ZM248.803 483C248.439 483 248.153 482.714 248.153 482.35C248.153 481.986 248.439 481.7 248.803 481.7C249.167 481.7 249.453 481.986 249.453 482.35C249.453 482.714 249.167 483 248.803 483Z" fill="white"/>
<path d="M618.647 433.324V66.7577M293.511 431.54V64.9739" stroke="white" stroke-width="1.02891" stroke-dasharray="2.06 2.06"/>
<path d="M260 416.322L648.82 416.322M261.892 90.7286L650.712 90.7286" stroke="white" stroke-width="1.02891" stroke-dasharray="2.06 2.06"/>
<path d="M269.027 53.2636C268.081 51.8368 267.367 50.3827 266.887 48.901C266.407 47.4057 266.167 45.9103 266.167 44.415C266.167 41.3694 267.12 38.4198 269.027 35.5663H270.571C268.828 38.5296 267.957 41.4791 267.957 44.415C267.957 45.8829 268.177 47.3577 268.616 48.8393C269.055 50.3072 269.706 51.782 270.571 53.2636H269.027ZM277.003 48.901L282.765 38.4061L284.412 38.4884L278.65 48.9833L277.003 48.901ZM280.708 51.3293C279.651 51.3293 278.732 51.0206 277.95 50.4032C277.182 49.7859 276.592 48.9079 276.18 47.7692C275.769 46.6306 275.563 45.2793 275.563 43.7153C275.563 42.1376 275.769 40.7795 276.18 39.6408C276.592 38.5022 277.182 37.6242 277.95 37.0068C278.732 36.3757 279.651 36.0602 280.708 36.0602C281.778 36.0602 282.697 36.3757 283.465 37.0068C284.233 37.6242 284.823 38.5022 285.235 39.6408C285.646 40.7795 285.852 42.1376 285.852 43.7153C285.852 45.2793 285.646 46.6306 285.235 47.7692C284.823 48.9079 284.233 49.7859 283.465 50.4032C282.697 51.0206 281.778 51.3293 280.708 51.3293ZM280.708 49.6007C281.393 49.6007 281.977 49.3606 282.457 48.8804C282.951 48.4003 283.328 47.7212 283.588 46.8432C283.863 45.9515 284 44.9088 284 43.7153C284 42.4943 283.863 41.4448 283.588 40.5668C283.328 39.6751 282.951 38.9892 282.457 38.509C281.977 38.0289 281.393 37.7888 280.708 37.7888C280.035 37.7888 279.452 38.0289 278.958 38.509C278.465 38.9892 278.08 39.6751 277.806 40.5668C277.545 41.4448 277.415 42.4943 277.415 43.7153C277.415 44.9088 277.545 45.9515 277.806 46.8432C278.08 47.7212 278.465 48.4003 278.958 48.8804C279.452 49.3606 280.035 49.6007 280.708 49.6007ZM291.956 54.2102L292.923 51H291.812V48.4895H294.281V50.7119L292.985 54.2102H291.956ZM301.681 48.901L307.443 38.4061L309.089 38.4884L303.328 48.9833L301.681 48.901ZM305.385 51.3293C304.329 51.3293 303.41 51.0206 302.628 50.4032C301.86 49.7859 301.27 48.9079 300.858 47.7692C300.447 46.6306 300.241 45.2793 300.241 43.7153C300.241 42.1376 300.447 40.7795 300.858 39.6408C301.27 38.5022 301.86 37.6242 302.628 37.0068C303.41 36.3757 304.329 36.0602 305.385 36.0602C306.455 36.0602 307.375 36.3757 308.143 37.0068C308.911 37.6242 309.501 38.5022 309.913 39.6408C310.324 40.7795 310.53 42.1376 310.53 43.7153C310.53 45.2793 310.324 46.6306 309.913 47.7692C309.501 48.9079 308.911 49.7859 308.143 50.4032C307.375 51.0206 306.455 51.3293 305.385 51.3293ZM305.385 49.6007C306.071 49.6007 306.654 49.3606 307.134 48.8804C307.628 48.4003 308.006 47.7212 308.266 46.8432C308.541 45.9515 308.678 44.9088 308.678 43.7153C308.678 42.4943 308.541 41.4448 308.266 40.5668C308.006 39.6751 307.628 38.9892 307.134 38.509C306.654 38.0289 306.071 37.7888 305.385 37.7888C304.713 37.7888 304.13 38.0289 303.636 38.509C303.142 38.9892 302.758 39.6751 302.484 40.5668C302.223 41.4448 302.093 42.4943 302.093 43.7153C302.093 44.9088 302.223 45.9515 302.484 46.8432C302.758 47.7212 303.142 48.4003 303.636 48.8804C304.13 49.3606 304.713 49.6007 305.385 49.6007ZM317.066 53.2636H315.522C316.387 51.782 317.038 50.3072 317.477 48.8393C317.916 47.3577 318.136 45.8829 318.136 44.415C318.136 41.4791 317.265 38.5296 315.522 35.5663H317.066C318.973 38.4198 319.926 41.3694 319.926 44.415C319.926 45.9103 319.686 47.4057 319.206 48.901C318.726 50.3827 318.012 51.8368 317.066 53.2636Z" fill="white"/>
<path d="M580.719 451.292C579.772 449.865 579.059 448.411 578.578 446.929C578.098 445.434 577.858 443.939 577.858 442.443C577.858 439.398 578.812 436.448 580.719 433.595H582.262C580.52 436.558 579.648 439.508 579.648 442.443C579.648 443.911 579.868 445.386 580.307 446.868C580.746 448.336 581.398 449.81 582.262 451.292H580.719ZM592.07 449.028V438.204H588.242V436.682H590.218C590.739 436.682 591.157 436.606 591.473 436.455C591.802 436.304 592.035 436.064 592.173 435.735C592.324 435.406 592.399 434.967 592.399 434.418H593.839V449.028H592.07ZM587.46 449.028V447.3H597.338V449.028H587.46ZM599.593 449.028C599.593 448 599.751 447.074 600.067 446.25C600.396 445.414 600.965 444.618 601.775 443.863C602.598 443.109 603.736 442.347 605.191 441.579C605.863 441.222 606.405 440.893 606.816 440.591C607.228 440.29 607.53 439.967 607.722 439.624C607.914 439.281 608.01 438.863 608.01 438.369C608.01 437.861 607.9 437.422 607.681 437.052C607.461 436.668 607.132 436.366 606.693 436.146C606.267 435.927 605.732 435.817 605.088 435.817C604.059 435.817 603.242 436.085 602.639 436.62C602.049 437.155 601.679 437.916 601.528 438.904L599.676 438.78C599.84 437.354 600.389 436.215 601.322 435.365C602.255 434.514 603.51 434.089 605.088 434.089C606.089 434.089 606.947 434.267 607.66 434.624C608.373 434.98 608.915 435.481 609.286 436.126C609.67 436.757 609.862 437.491 609.862 438.328C609.862 439.069 609.738 439.713 609.491 440.262C609.244 440.797 608.826 441.298 608.236 441.764C607.66 442.231 606.864 442.732 605.849 443.267C604.971 443.733 604.23 444.206 603.627 444.686C603.037 445.167 602.584 445.633 602.268 446.086C601.967 446.525 601.802 446.929 601.775 447.3H609.882V449.028H599.593ZM615.986 452.239L616.953 449.028H615.842V446.518H618.311V448.74L617.015 452.239H615.986ZM629.086 449.028V438.204H625.259V436.682H627.234C627.756 436.682 628.174 436.606 628.49 436.455C628.819 436.304 629.052 436.064 629.189 435.735C629.34 435.406 629.416 434.967 629.416 434.418H630.856V449.028H629.086ZM624.477 449.028V447.3H634.354V449.028H624.477ZM636.61 449.028C636.61 448 636.768 447.074 637.083 446.25C637.413 445.414 637.982 444.618 638.791 443.863C639.614 443.109 640.753 442.347 642.207 441.579C642.879 441.222 643.421 440.893 643.833 440.591C644.244 440.29 644.546 439.967 644.738 439.624C644.93 439.281 645.026 438.863 645.026 438.369C645.026 437.861 644.917 437.422 644.697 437.052C644.478 436.668 644.148 436.366 643.709 436.146C643.284 435.927 642.749 435.817 642.104 435.817C641.075 435.817 640.259 436.085 639.656 436.62C639.066 437.155 638.695 437.916 638.544 438.904L636.692 438.78C636.857 437.354 637.406 436.215 638.339 435.365C639.271 434.514 640.527 434.089 642.104 434.089C643.106 434.089 643.963 434.267 644.677 434.624C645.39 434.98 645.932 435.481 646.302 436.126C646.686 436.757 646.878 437.491 646.878 438.328C646.878 439.069 646.755 439.713 646.508 440.262C646.261 440.797 645.843 441.298 645.253 441.764C644.677 442.231 643.881 442.732 642.866 443.267C641.988 443.733 641.247 444.206 640.643 444.686C640.053 445.167 639.601 445.633 639.285 446.086C638.983 446.525 638.819 446.929 638.791 447.3H646.899V449.028H636.61ZM653.435 451.292H651.892C652.756 449.81 653.407 448.336 653.846 446.868C654.285 445.386 654.505 443.911 654.505 442.443C654.505 439.508 653.634 436.558 651.892 433.595H653.435C655.342 436.448 656.295 439.398 656.295 442.443C656.295 443.939 656.055 445.434 655.575 446.929C655.095 448.411 654.382 449.865 653.435 451.292Z" fill="white"/>
<path d="M637.789 264.716C636.842 263.289 636.129 261.835 635.649 260.354C635.169 258.858 634.929 257.363 634.929 255.867C634.929 252.822 635.882 249.872 637.789 247.019H639.332C637.59 249.982 636.719 252.932 636.719 255.867C636.719 257.335 636.938 258.81 637.377 260.292C637.816 261.76 638.468 263.234 639.332 264.716H637.789ZM649.14 262.453V251.628H645.312V250.106H647.288C647.809 250.106 648.228 250.03 648.543 249.879C648.872 249.728 649.106 249.488 649.243 249.159C649.394 248.83 649.469 248.391 649.469 247.842H650.91V262.453H649.14ZM644.53 262.453V260.724H654.408V262.453H644.53ZM656.664 262.453C656.664 261.424 656.821 260.498 657.137 259.674C657.466 258.838 658.035 258.042 658.845 257.287C659.668 256.533 660.807 255.771 662.261 255.003C662.933 254.647 663.475 254.317 663.887 254.015C664.298 253.714 664.6 253.391 664.792 253.048C664.984 252.705 665.08 252.287 665.08 251.793C665.08 251.285 664.97 250.846 664.751 250.476C664.531 250.092 664.202 249.79 663.763 249.571C663.338 249.351 662.803 249.241 662.158 249.241C661.129 249.241 660.313 249.509 659.709 250.044C659.119 250.579 658.749 251.34 658.598 252.328L656.746 252.205C656.911 250.778 657.459 249.639 658.392 248.789C659.325 247.938 660.58 247.513 662.158 247.513C663.159 247.513 664.017 247.691 664.73 248.048C665.444 248.404 665.986 248.905 666.356 249.55C666.74 250.181 666.932 250.915 666.932 251.752C666.932 252.493 666.809 253.137 666.562 253.686C666.315 254.221 665.896 254.722 665.306 255.188C664.73 255.655 663.935 256.156 662.919 256.691C662.041 257.157 661.301 257.63 660.697 258.111C660.107 258.591 659.654 259.057 659.339 259.51C659.037 259.949 658.872 260.354 658.845 260.724H666.953V262.453H656.664ZM673.056 265.663L674.024 262.453H672.912V259.942H675.382V262.164L674.085 265.663H673.056ZM686.527 262.782C685.43 262.782 684.49 262.535 683.708 262.041C682.94 261.533 682.35 260.793 681.938 259.819C681.54 258.844 681.341 257.665 681.341 256.279C681.341 255.072 681.437 253.94 681.629 252.884C681.835 251.827 682.158 250.901 682.597 250.106C683.049 249.296 683.639 248.665 684.366 248.212C685.107 247.746 686.02 247.513 687.103 247.513C687.968 247.513 688.702 247.657 689.305 247.945C689.909 248.233 690.396 248.638 690.766 249.159C691.15 249.68 691.438 250.284 691.63 250.97L689.778 251.134C689.614 250.558 689.326 250.099 688.914 249.756C688.516 249.413 687.913 249.241 687.103 249.241C686.294 249.241 685.601 249.475 685.025 249.941C684.449 250.394 683.996 251.08 683.667 251.999C683.351 252.918 683.18 254.07 683.152 255.456L682.782 255.374C682.933 254.88 683.193 254.427 683.564 254.015C683.948 253.59 684.414 253.254 684.963 253.007C685.526 252.746 686.157 252.616 686.856 252.616C687.817 252.616 688.654 252.822 689.367 253.233C690.08 253.645 690.636 254.228 691.034 254.983C691.432 255.723 691.63 256.595 691.63 257.596C691.63 258.666 691.411 259.592 690.972 260.374C690.547 261.142 689.95 261.739 689.182 262.164C688.427 262.576 687.542 262.782 686.527 262.782ZM686.568 261.053C687.529 261.053 688.304 260.751 688.894 260.148C689.484 259.53 689.778 258.68 689.778 257.596C689.778 256.581 689.497 255.778 688.935 255.188C688.386 254.598 687.652 254.304 686.733 254.304C686.074 254.304 685.484 254.441 684.963 254.715C684.442 254.976 684.03 255.353 683.728 255.847C683.427 256.341 683.276 256.924 683.276 257.596C683.276 258.268 683.406 258.865 683.667 259.386C683.941 259.908 684.325 260.319 684.819 260.621C685.313 260.909 685.896 261.053 686.568 261.053ZM698.166 264.716H696.623C697.487 263.234 698.139 261.76 698.578 260.292C699.017 258.81 699.236 257.335 699.236 255.867C699.236 252.932 698.365 249.982 696.623 247.019H698.166C700.073 249.872 701.027 252.822 701.027 255.867C701.027 257.363 700.787 258.858 700.306 260.354C699.826 261.835 699.113 263.289 698.166 264.716Z" fill="white"/>
</g>
<defs>
<clipPath id="clip0_1_2081">
<rect width="900" height="506.25" fill="white"/>
</clipPath>
<clipPath id="clip1_1_2081">
<rect width="1135.18" height="2380.67" fill="white" transform="translate(-329 -83)"/>
</clipPath>
</defs>
</svg>
